<?xml version="1.0" encoding="utf-8"?>
<!-- Generator: Adobe Illustrator 16.0.0, SVG Export Plug-In . SVG Version: 6.00 Build 0)  -->
<!DOCTYPE svg PUBLIC "-//W3C//DTD SVG 1.1//EN" "http://www.w3.org/Graphics/SVG/1.1/DTD/svg11.dtd">
<svg version="1.1" id="Layer_1" xmlns="http://www.w3.org/2000/svg" xmlns:xlink="http://www.w3.org/1999/xlink" x="0px" y="0px"
	 width="747.5px" height="768px" viewBox="311.5 0 747.5 768" enable-background="new 311.5 0 747.5 768" xml:space="preserve">
<g>
	<path fill-rule="evenodd" clip-rule="evenodd" fill="#FEFEFE" d="M1040.681,382.791c0,117.167-0.02,234.333,0.096,351.499
		c0.004,3.424-0.672,4.096-4.096,4.094c-234.666-0.104-469.333-0.104-704,0c-3.423,0.002-4.096-0.67-4.094-4.094
		c0.104-234.666,0.104-469.332,0-703.999c-0.001-3.424,0.671-4.096,4.094-4.095c234.667,0.104,469.334,0.104,704,0
		c3.424-0.001,4.1,0.671,4.096,4.095C1040.661,147.791,1040.681,265.291,1040.681,382.791z"/>
	<path fill-rule="evenodd" clip-rule="evenodd" fill="#934190" d="M564.476,529.16c-1.196-5.086-0.799-10.27-0.625-15.389
		c0.123-3.586-1.087-5.178-4.463-6.459c-39.979-15.176-79.399-31.668-117.508-51.133c-18.092-9.242-36.513-18.326-51.756-31.852
		c-23.434-20.791-44.229-44.043-55.026-74.233c-9.085-25.403-4.995-50.245,5.685-74.251c18.028-40.524,44.991-74.487,77.544-104.237
		c9.095-8.312,18.489-16.278,28.508-23.479c0.474-0.152,0.89-0.047,1.259,0.279c1.031,1.549,1.532,3.347,2.357,4.995
		c0.562,1.545,1.055,3.111,1.451,4.709c0.252,1.188,0.661,2.338,0.858,3.54c0.264,1.738,0.208,3.488,0.224,5.237
		c0.013,0.743-0.036,1.483-0.12,2.222c-0.166,1.444-0.649,2.817-0.953,4.231c-0.261,1.146-0.652,2.248-1.152,3.312
		c-0.854,1.853-2.024,3.524-3.052,5.278c-1.198,2.125-2.289,4.302-3.243,6.548c-0.436,1.043-0.758,2.122-1.055,3.212
		c-0.52,1.579-0.511,3.257-0.903,4.858c-1.125,3.207,0.824,6.258,0.493,9.42c0,1.455,0.16,2.892,0.533,4.302
		c0.392,1.884,0.622,3.799,1.127,5.659c0.288,1.375,0.622,2.741,0.982,4.099c0.402,1.981,0.937,3.926,1.716,5.795
		c0.667,1.825,1.663,3.471,2.794,5.039c0.828,1.465,1.863,2.768,3.104,3.906c1.151,1.265,2.508,2.267,3.988,3.114
		c2.588,1.771,5.087,3.687,8.102,4.729c3.824,1.56,7.627,3.166,11.731,3.879c8.008,2.303,16.231,3.692,24.281,5.798
		c4.35,1.26,8.826,2.123,12.972,4.036c3.1,1.31,5.819,3.315,8.802,4.842c2.938,1.479,5.56,3.468,8.346,5.194
		c3.811,2.712,7.848,5.027,12.082,7.02c7.952,3.742,12.216,2.828,17.993-3.947c0.757-0.888,1.515-1.773,2.347-2.596
		c1.932-1.813,3.759-3.728,5.623-5.612c3.568-3.51,8.354-3.862,12.851-4.979c3.021-0.49,6.037-0.497,9.053,0.024
		c7.533,1.043,15.059,2.139,22.347,4.414c5.01,1.277,9.849,3.106,14.776,4.642c4.804,1.881,9.605,3.762,14.571,5.212
		c7.596,2.219,14.146,0.896,19.335-5.386c1.352-1.521,2.505-3.171,3.225-5.094c0.408-1.037,0.859-2.056,1.254-3.098
		c0.619-1.688,0.953-3.454,1.388-5.192c0.146-0.902,0.341-1.793,0.562-2.677c0.703-2.445,0.752-4.891,0.015-7.336
		c-0.942-2.9-2.753-5.145-5.203-6.906c-6.987-5.14-15.232-6.39-23.481-7.057c-4.893-0.396-8.91,2.067-11.722,7.143
		c5.317-1.347,10.237-2.663,15.122-0.361c3.344,2.196,7.523,3.424,9.021,7.765c0.356,1.531,0.344,3.07,0.102,4.616
		c-0.52,2.306-1.723,4.215-3.418,5.835c-1.737,1.431-3.717,2.434-5.803,3.248c-1.734,0.498-3.406,0.165-5.063-0.379
		c-2.504-0.792-4.69-2.188-6.855-3.623c-2.021-1.787-4.327-3.225-6.325-5.045c-1.675-1.721-3.365-3.429-5.089-5.103
		c-1.332-1.402-2.699-2.767-4.276-3.903c-1.63-1.48-3.302-2.901-5.317-3.854c-3.457-1.706-7.075-2.922-10.853-3.68
		c-6.933-1.554-14.136-1.521-20.966-3.632c-2.623-0.927-4.111-3.073-5.606-5.217c-0.594-1.13-0.969-2.343-1.329-3.563
		c-0.374-1.478-0.422-2.972-0.2-4.477c0.28-1.445,0.706-2.856,1.043-4.291c0.605-1.916,1.454-3.719,2.51-5.431
		c1.138-1.508,2.443-2.828,4.116-3.752c5.211-2.003,10.567-1.252,15.906-0.852c4.675,1.255,9.515,1.768,14.188,3.035
		c4.973,1.202,9.955,2.374,14.813,4.001c1.742,0.785,3.482,1.584,5.297,2.207c1.467,0.647,2.896,1.384,4.349,2.065
		c1.93,1.139,4.095,1.741,6.13,2.638c1.007,0.473,2.004,0.967,3.004,1.455c1.943,1.084,3.992,1.964,5.941,3.037
		c2.145,1.603,4.526,2.785,6.951,3.891c1.939,1.1,3.988,1.992,5.945,3.059c1.619,1.166,3.323,2.187,5.152,2.994
		c2.344,1.316,4.85,2.338,7.084,3.855c1.827,1.306,3.896,2.159,5.902,3.128c2.004,1.125,4.123,2.023,6.135,3.136
		c2.97,2.089,6.22,3.628,9.603,4.919c16.442,7.616,33.12,7.875,50.017,1.663c2.189-0.806,4.496-1.222,6.701-1.964
		c10.693-2.478,21.412-1.774,32.129-0.158c2.451,0.37,4.869,0.979,7.645,1.019c0.215-2.275-1.574-3.228-2.557-4.588
		c-1.473-1.608-2.91-3.251-4.637-4.607c-2.037-1.455-3.902-3.159-6.25-4.156c-4.604-2.168-9.465-2.975-14.52-3.121
		c-14.826-0.429-29.549,0.743-44.23,2.666c-5.021,0.657-9.954,0.453-14.719-1.45c-2.122-1.066-4.103-2.351-5.811-4.023
		c-1.061-1.394-1.748-2.991-2.455-4.583c-0.178-0.482-0.277-0.979-0.324-1.489c-0.07-1.63,0.361-3.112,1.298-4.452
		c0.341-0.438,0.757-0.782,1.238-1.054c5.871-2.699,11.671-1.017,17.437,0.387c3.043,0.741,5.98,1.899,9.057,2.534
		c14.467,2.57,29.012,3.495,43.654,1.927c3.424-0.366,6.873-0.208,10.754-0.38c-1.791-1.339-3.426-1.644-4.938-2.228
		c-3.217-1.316-6.199-3.205-9.648-3.955c-2.227-0.253-4.229-1.207-6.279-2.007c-2.041-0.75-3.984-1.72-5.963-2.614
		c-3.91-1.942-8.086-3.126-12.266-4.3c-2.811-0.217-5.303-1.671-8.076-2.039c-4.762-0.788-9.523-1.558-14.271-2.408
		c-3.986-0.971-7.973-0.914-11.96-0.021c-4.218,0.478-8.42,1.026-12.56,2.017c-4.098,0.979-7.74-0.354-11.214-2.39
		c-1.735-0.98-3.179-2.364-4.784-3.525c-1.998-1.384-2.955-3.52-4.021-5.579c-0.42-0.827-0.794-1.673-1.086-2.558
		c-0.215-0.702-0.279-1.417-0.2-2.151c0.073-0.509,0.229-0.984,0.455-1.444c0.64-1.214,1.597-2.081,2.849-2.633
		c6.626-2.277,13.07-0.678,19.517,0.907c5.804,1.283,11.378,3.332,17.041,5.092c14.354,4.426,28.69,3.581,43.013-0.106
		c4.732-1.282,9.305-3.103,13.416-4.416c-5.664,0.158-11.975,0.54-18.27-0.22c-5.078-0.988-10.164-1.926-15.039-3.709
		c-2.309-1.298-4.824-2.157-7.191-3.328c-1.852-0.897-3.852-1.401-5.77-2.12c-1.438-0.635-2.844-1.333-4.223-2.092
		c-0.58-0.336-1.129-0.723-1.68-1.104c-1.863-1.304-4.167-1.72-6.058-2.976c-2.335-1.391-4.953-2.059-7.481-2.965
		c-13.893-3.987-27.736-2.617-41.567,0.308c-5.284,0.868-10.532,1.923-15.753,3.132c-6.164,0.584-12.33,0.557-18.493,0.058
		c-4.147-1.11-8.453-1.608-12.509-3.096c-2.77-1.05-5.508-2.191-8.291-3.218c-2.781-1.363-5.584-2.689-8.318-4.155
		c-1.561-1.131-3.283-2.064-4.501-3.625c-0.978-1.482-1.428-3.13-1.526-4.888c-0.059-0.967-0.031-1.935,0.056-2.9
		c0.118-1.186,0.464-2.308,0.974-3.381c0.385-0.827,0.824-1.628,1.27-2.426c0.691-1.182,1.482-2.295,2.336-3.369
		c1.152-1.241,2.482-2.244,3.995-3.011c2.587-1.168,5.435-1.305,8.119-2.104c2.43-0.457,4.855-0.442,7.28,0.018
		c5.539,0.962,11.189,1.307,16.607,2.94c2.154,0.763,4.332,1.459,6.51,2.156c2.953,1.154,5.999,2.044,9.012,3.025
		c2.679,1.05,5.477,1.779,8.109,2.952c2.592,1.102,5.197,2.171,7.848,3.132c1.502,0.667,2.967,1.418,4.5,2.02
		c2.869,1.228,5.884,2.02,8.844,2.979c2.345,0.955,4.816,1.443,7.272,1.995c10.715,2.831,21.589,3.427,32.566,2.248
		c2.12-0.228,4.263-0.723,6.128-1.918c2.063-0.961,4.289-1.463,6.408-2.264c2.705-0.744,5.229-1.983,7.854-2.944
		c1.459-0.563,2.863-1.231,4.156-2.126c1.723-1.084,3.678-1.746,5.326-2.969c1.918-0.998,3.744-2.129,5.396-3.533
		c0.99-0.875,2.205-1.49,3.271-3.076c-19.334,0.955-38.332,5.147-57.385,0.813c-2.646-0.083-5.11-0.859-7.486-1.959
		c-2.525-0.949-5.082-1.809-7.707-2.453c-2.379-1.043-4.717-2.188-7.117-3.191c-2.406-1.336-4.887-2.531-7.363-3.731
		c-1.994-1.046-4.01-2.051-6.01-3.087c-1.703-1.023-3.291-2.241-5.135-3.026c-1.574-0.814-3.172-1.563-4.932-1.902
		c-2.488-0.667-4.42-2.476-6.838-3.288c-2.637-1.072-5.244-2.217-7.981-3.031c-4.36-1.816-8.896-3.084-13.431-4.361
		c-5.846-1.206-11.425-3.347-17.207-4.806c-11.166-2.817-21.66-1.511-31.641,4.155c-2.63,1.422-5.258,2.854-7.649,4.671
		c-1.367,1.054-2.896,1.891-4.151,3.097c-1.249,1.125-2.414,2.351-3.856,3.242c-1.233,0.736-2.266,1.713-3.252,2.746
		c-0.729,0.734-1.46,1.467-2.144,2.245c-1.007,1.104-1.745,2.412-2.697,3.557c-0.708,0.811-1.479,1.56-2.224,2.333
		c-1.063,1.025-1.991,2.161-2.764,3.422c-0.727,1.018-1.466,2.026-2.103,3.106c-0.332,0.536-0.703,1.044-1.07,1.555
		c-0.946,1.385-1.867,2.783-2.698,4.239c-0.399,0.728-0.786,1.462-1.154,2.206c-0.355,0.752-0.713,1.502-1.037,2.269
		c-0.64,1.568-1.14,3.191-1.86,4.728c-0.622,1.377-1.064,2.841-1.948,4.094c-0.747,1.081-1.415,2.219-2.268,3.227
		c-1.386,1.454-2.783,2.896-4.265,4.257c-1.64,1.303-3.552,2.136-5.364,3.147c-2.571,1.223-5.308,1.985-7.982,2.924
		c-3.355,0.854-6.764,1.514-10.018,2.728c-1.18,0.437-2.274,1.042-3.304,1.762c-0.654,0.431-1.297,0.877-1.805,1.487
		c-0.473,0.639-0.912,1.298-1.345,1.962c-0.662,1.039-1.163,2.161-1.712,3.255c-0.669,1.243-1.352,2.48-1.533,3.915
		c-0.031,0.405-0.089,0.806-0.148,1.208c-0.075,0.611-0.21,1.209-0.395,1.795c-0.175,0.597-0.342,1.194-0.446,1.811
		c-0.096,0.878-0.068,1.756-0.074,2.641c0.014,0.489-0.018,0.967-0.065,1.451c-0.073,0.771-0.213,1.524-0.386,2.277
		c-0.688,4.679-0.165,9.376-0.296,14.061c-0.033,4.291,0.014,8.58-0.031,12.867c0.032,0.831-0.053,1.653-0.204,2.468
		c-0.332,1.557-0.838,3.063-1.412,4.55c-0.994,2.215-2.428,4.041-4.623,5.19c-3.602,1.502-7.184,1.402-10.748-0.137
		c-2.874-1.446-5.648-3.055-8.041-5.249c-1.477-1.381-2.318-3.164-3.143-4.961c-0.618-1.647-1.167-3.313-1.386-5.071
		c-0.13-1.274-0.147-2.552-0.12-3.831c-0.096-2.341,0.775-4.534,1.027-6.821c0.229-1.479,0.732-2.895,1.032-4.357
		c0.583-2.341,1.438-4.599,2.135-6.905c0.729-1.977,1.325-4.006,2.272-5.899c0.75-1.405,1.479-2.823,2.086-4.3
		c0.711-1.679,1.289-3.408,1.939-5.109c0.649-1.539,0.513-3.167,0.528-4.776c-0.019-1.191-0.005-2.382-0.011-3.57
		c0.015-1.426-0.141-2.831-0.52-4.21c-0.23-0.918-0.346-1.853-0.417-2.791c-0.028-1.6-0.494-3.125-0.844-4.666
		c-0.266-1.518-0.769-2.935-1.779-4.136c-1.862-2.392-4.292-3.941-7.153-4.866c-4.289-2.277-9.513-1.129-13.701-3.75
		c24.41-18.682,50.739-34.301,78.445-47.416c47.532-22.499,96.114-42.495,146.495-57.811c22.361-6.798,45.109-11.981,68.715-10.398
		c28.887,1.938,53,12.445,67.15,39.561c7.146,13.695,9.936,28.54,10.707,43.768c1.182,23.321-3.16,46.086-7.805,68.758
		c-11.299,55.147-26.061,109.307-46.934,161.679c-1.771,4.445-3.283,9.038-5.969,13.078c-1.949,0.604-3.953,0.459-5.949,0.458
		c-31.133-0.015-62.266-0.01-93.398-0.002c-7.838,0.001-7.964,0.099-9.675,7.575c-9.619,42.028-19.708,83.946-29.298,125.981
		c-2.013,8.824-2.762,9.412-11.691,9.432c-12.653,0.025-25.307,0.002-37.959,0.008c-9.071,0.004-9.136,0.09-8.017,8.9
		c0.695,5.475,0.398,10.973,0.3,16.461C566.059,526.645,565.889,528.182,564.476,529.16z"/>
	<path fill-rule="evenodd" clip-rule="evenodd" d="M564.476,529.16c0.492-8.307,0.491-16.617-0.586-24.873
		c-0.631-4.836,0.61-6.674,6.007-6.488c15.143,0.52,30.311,0.283,45.466,0.561c3.392,0.063,4.81-0.736,5.641-4.355
		c10.119-44.063,20.55-88.055,30.651-132.121c1.148-5.008,2.727-6.946,8.354-6.861c32.144,0.482,64.296,0.43,96.444,0.6
		c1.779,0.01,3.684-0.505,5.318,0.724c-8.199,44.454-16.393,88.909-24.6,133.36c-0.918,4.969,0.205,6.602,5.338,7.244
		c1.807,0.227,3.658,0.158,5.488,0.158c37.984,0,75.979-0.475,113.928,1.717c11.637,0.672,23.246,1.801,34.928,1.369
		c5.34-0.197,10.188-1.436,14.014-5.443c0.457-0.479,1.098-0.785,1.529-1.281c11.012-12.611,25.166-15.381,41.133-14.053
		c14.766,1.229,29.525,2.023,43.924,5.918c17.24,4.66,20.986,9.363,21.043,27.418c0.055,17.559-2.781,34.787-6.197,51.943
		c-6.348,31.883-10.877,63.984-10.555,96.576c0.164,16.662,3.596,33.078,4.566,49.689c1.119,19.125-1.146,18.813-17.098,23.152
		c-6.65,1.811-13.527,1.93-20.332,1.152c-8.545-0.979-15.678-4.678-21.637-11.125c-16.793-18.162-23.195-40.65-27.555-64.117
		c-6.383-34.361-10.949-68.977-14.551-103.721c-0.402-3.898-1.836-4.787-5.422-4.879c-40.301-1.02-80.607-1.883-120.889-3.463
		c-14.436-0.566-28.145,0.932-41.262,7.07c-12.391,5.797-19.906,15.193-21.678,28.941c-3.175,24.643-1.436,49.043,6.252,72.555
		c8.193,25.059,26.264,39.348,52.582,42.709c27.916,3.566,55.949,5.869,84.066,7.02c4.293,0.176,6.219,1.043,5.6,5.93
		c-0.729,5.76-0.662,11.639-0.643,17.465c0.01,2.631-0.408,3.725-3.438,3.725c-39.988,0.021-79.973,0-119.932-1.871
		c-13.467-0.629-26.891-1.881-40.334-2.775c-21.879-1.457-38.99-12.527-54.709-26.225c-18.914-16.484-28.13-37.85-29.611-62.768
		c-1.532-25.771-3.163-51.539-3.096-77.369c0.008-3.082-1.09-4.262-3.85-5.137c-13.292-4.213-26.483-8.746-39.801-12.875
		c-3.438-1.064-4.757-2.65-4.422-6.207C564.836,535.182,564.525,532.158,564.476,529.16z"/>
	<path fill-rule="evenodd" clip-rule="evenodd" d="M968.501,368.137c14.506,0.512,28.641,3.083,42.395,7.813
		c15.838,5.444,23.924,17.06,26.586,33.029c0.988,5.939-2.244,10.809-8.479,12.102c-27.029,5.611-53.195,3.805-77.836-9.756
		c-9.535-5.246-13.768-15.059-11.279-25.793c2.619-11.3,9.211-16.75,21.135-17.375C963.509,368.026,966.009,368.137,968.501,368.137
		z"/>
	<path fill-rule="evenodd" clip-rule="evenodd" fill="#FDAD45" d="M447.573,148.36c-0.259-0.039-0.506-0.115-0.74-0.23
		c-0.813-4.018,2.431-2.447,4.133-3.001c5.129,0.225,10.264,0.422,14.881,3.099C459.775,150.902,453.682,150.692,447.573,148.36z"/>
	<path fill-rule="evenodd" clip-rule="evenodd" fill="#FEFEFE" d="M453.38,279.578c78.99,0,157.78,0,236.973,0
		c-0.967,3.319-3.587,5.231-5.568,7.479c-16.118,18.286-32.79,36.096-53.957,48.656c-15.696,9.314-33.326,14.155-50.748,19.112
		c-4.362,1.241-5.771,3.088-6.205,7.186c-4.157,39.188,0.805,76.706,20.034,111.682c2.164,3.936,4.139,7.996,6.577,11.754
		c1.611,2.484,0.978,3.297-1.513,4.174c-5.961,2.098-11.887,4.314-17.734,6.705c-2.776,1.133-4.518,0.557-6.416-1.75
		c-13.273-16.137-20.376-34.998-24.058-55.217c-4.185-22.982-4.213-46.379-6.077-69.593c-0.346-4.315,0.671-9.308-1.186-12.788
		c-2.183-4.09-7.805-1.621-11.832-2.198c-25.572-3.666-45.133-15.967-58.02-38.591c-6.013-10.555-12.277-20.967-18.403-31.459
		C454.421,283.314,453.404,281.949,453.38,279.578z"/>
	<path fill-rule="evenodd" clip-rule="evenodd" fill="#FE8011" d="M496.341,176.198c0.397-1.494,0.927-2.918,2.115-3.993
		c2.113-1.181,4.408-1.341,6.77-1.32c22.594,0.195,45.194-0.298,67.778,0.154c10.584,0.212,21.23,0.34,31.761,0.285
		c20.756-0.109,41.528-0.408,62.292-0.364c14.96,0.032,29.919-0.432,44.9,0.376c5.555,0.3,11.146,0.479,16.711,0.96
		c2.541,0.585,4.902,1.604,7.121,2.962c-1.629,2.428-4.166,2.5-6.684,2.507c-36.452,0.096-72.904,0.073-109.355-0.076
		c-2.998-0.013-5.989,0.104-8.984,0.104c-35.789-0.003-71.579-0.037-107.368-0.032C500.964,177.76,498.333,178.33,496.341,176.198z"
		/>
	<path fill-rule="evenodd" clip-rule="evenodd" fill="#FC6802" d="M493.589,190.132c0.054-0.608,0.107-1.217,0.16-1.824
		c12.4-1.171,24.821-0.559,37.237-0.461c14.158,0.111,28.317,0.083,42.475,0.015c27.267-0.134,54.534,0.097,81.801,0.07
		c6.481-0.007,12.929-0.624,19.403-0.606c1.775,1.386,1.874,4.033,3.921,5.215c-0.49,2.647-2.608,2.71-4.593,2.752
		c-7.647,0.159-15.293,0.059-22.943-0.045c-9.109-0.122-18.23,0.229-27.343,0.236c-21.81,0.017-43.635,0.608-65.422-0.07
		c-9.137-0.284-18.243,0.97-27.345-0.069c-6.037-0.042-12.058-1.537-18.105-0.151c-1.797,0.405-3.603,0.447-5.412,0.098
		c-2.878-0.759-5.758-0.701-8.642,0.034c-1.9,0.228-3.813,0.518-5.359-1.045C493.134,192.882,492.967,191.491,493.589,190.132z"/>
	<path fill-rule="evenodd" clip-rule="evenodd" fill="#CC1F02" d="M476.418,247.383c-4.269-0.354-8.07-2.056-11.76-4.081
		c1.73-3.128,4.817-2.552,7.535-2.57c15.287-0.101,30.575-0.061,45.862-0.043c31.903,0.037,63.805-0.09,95.707-0.018
		c2.333,0.005,4.648,0.036,6.925,0.608c2.095,1.255,3.679,3.054,5.22,4.899c-1.532,2.96-4.403,2.659-6.995,2.692
		c-10.14,0.131-20.282,0.052-30.423,0.054c-30.757,0.005-61.514-0.04-92.271,0.034C489.559,248.976,482.974,248.472,476.418,247.383
		z"/>
	<path fill-rule="evenodd" clip-rule="evenodd" fill="#F75D02" d="M595.407,200.391c-5.506,0.224-11.096-0.946-16.5,0.985
		c-2.275,1.207-4.716,1.428-7.254,1.42c-23.781-0.082-47.562-0.047-71.343-0.03c-2.143,0.002-4.352,0.282-6.319-0.946
		c-1.408-1.572-0.612-3.449-0.709-5.201c2.967-2.138,6.529-1.141,9.581-1.063c10.92,0.279,21.822-0.248,32.73-0.175
		c13.719,0.091,27.448-0.221,41.155,0.033c17.25,0.32,34.492-0.091,51.738,0.173c15.912,0.243,31.834-0.225,47.75-0.44
		c2.166-0.029,4.255,0.847,6.41,0.278c5.057,3.477,10.555,3.125,16.043,1.56c2.606-0.743,5.17-0.792,7.795-0.762
		c4.128-0.675,8.255-0.682,12.382,0.003c5.021,0.057,9.827,1.499,14.743,2.243c-1.281,3.146-4.107,2.268-6.412,2.272
		c-30.982,0.066-61.965,0.084-92.947,0.023C621.304,200.74,608.349,201.243,595.407,200.391z"/>
	<path fill-rule="evenodd" clip-rule="evenodd" fill="#FE7B0C" d="M496.341,176.198c40.251-0.111,80.504-0.123,120.754-0.133
		c36.778-0.009,73.565-0.067,110.348,0.254c2.855,0.024,5.625-0.215,8.346-1.062c5.025,1.318,10.051,2.638,15.076,3.956
		c-5.236,2.837-11.023,2.006-16.48,1.803c-12.912-0.48-25.801,0.03-38.698,0.049c-6.642-1.249-13.27-2.812-20.055-0.913
		c-2.634,0.386-5.272,0.569-7.942,0.569c-55.951-0.02-111.903-0.021-167.854-0.023c-1.649,0-3.339,0.27-4.927-0.458
		C494.957,178.74,495.495,177.415,496.341,176.198z"/>
	<path fill-rule="evenodd" clip-rule="evenodd" fill="#C81902" d="M476.418,247.383c47.403-0.031,94.807-0.061,142.21-0.096
		c2.478-0.002,5.014,0.329,7.277-1.107c1.994,1.675,3.987,3.351,5.981,5.025c-1.982,2.754-4.943,2.469-7.73,2.3
		c-11.808-0.719-23.648,0.434-35.412-0.273c-12.473-0.75-24.906,0.24-37.373-0.188c-9.409-0.323-18.938,0.798-28.384,0.24
		c-7.139-0.422-14.221-0.406-21.33,0.059C493.116,251.903,484.632,250.215,476.418,247.383z"/>
	<path fill-rule="evenodd" clip-rule="evenodd" fill="#D12502" d="M620.688,241.28c-1.64,1.737-3.767,0.975-5.667,0.977
		c-47.855,0.044-95.711,0.032-143.566,0.039c-2.31,0-4.678-0.326-6.795,1.007c-3.239-0.8-5.869-2.613-8.199-4.925
		c1.824-1.944,4.26-1.688,6.546-1.683c32.762,0.077,65.525-0.047,98.288,0.031c15.634,0.038,31.271,0.037,46.907-0.078
		c2.841-0.021,5.638,0.168,8.39,0.887C618.533,238.152,619.612,239.714,620.688,241.28z"/>
	<path fill-rule="evenodd" clip-rule="evenodd" fill="#D52902" d="M616.591,237.535c-1.786,1.369-3.863,0.723-5.797,0.726
		c-51.444,0.066-102.888,0.088-154.333,0.116c-1.694-0.487-2.907-1.547-3.702-3.104c1.936-2.32,4.671-2.488,7.312-2.397
		c21.938,0.761,43.879-0.078,65.822,0.155c21.925,0.232,43.873-0.135,65.809-0.146c6.627-0.003,13.3-0.593,19.898,0.621
		C613.767,234.225,615.21,235.842,616.591,237.535z"/>
	<path fill-rule="evenodd" clip-rule="evenodd" fill="#C41502" d="M501.659,253.343c3.392-3.985,8.114-1.651,11.894-1.733
		c8.685-0.189,17.403,0.591,26.159,0.42c6.828-0.133,13.64-0.966,20.542-0.215c8.774,0.955,17.591-0.654,26.476-0.091
		c11.098,0.703,22.287-0.184,33.426,0.066c3.965,0.089,7.873,0.87,11.731-0.584c2.209,1.145,4.417,2.289,6.625,3.435
		c-1.562,3.152-4.671,2.918-7.315,2.887c-10.603-0.124-21.213,0.373-31.805-0.218c-2.63-0.146-5.229,1.289-7.831,0.022
		c-3.259-0.002-6.518-0.004-9.776-0.006c-12.431,0.852-24.876,0.458-37.308,0.223c-9.977-0.189-19.947,0.553-29.917-0.033
		C510.259,256.125,505.958,254.735,501.659,253.343z"/>
	<path fill-rule="evenodd" clip-rule="evenodd" fill="#F35502" d="M624.54,207.566c-4.975-1.418-9.947-2.835-14.922-4.252
		c1.91-2.34,4.613-2.478,7.283-2.482c39.277-0.071,78.555,0.041,117.832-0.089c2.293-0.008,4.602,1.028,6.869-0.142
		c4.15,1.281,8.385,2.327,12.244,4.418c-0.563,3.503-3.459,2.569-5.5,2.612c-12.146,0.257-24.301,0.109-36.451,0.113
		c-26.3,0.009-52.6-0.065-78.899,0.053C630.167,207.811,627.364,207.352,624.54,207.566z"/>
	<path fill-rule="evenodd" clip-rule="evenodd" fill="#D82E02" d="M611.601,233.505c-4.118,1.755-8.549,0.983-12.736,1.017
		c-11.944,0.092-23.869-0.777-35.839,0.492c-3.264,0.346-6.854-0.744-10.347-0.738c-19.172,0.031-38.355-0.359-57.513,0.175
		c-9.374,0.261-18.701-0.21-28.049-0.16c-4.806,0.025-9.636-0.3-14.356,0.981c-1.616-0.871-2.748-2.139-3.232-3.938
		c6.597-2.402,13.488-2.127,20.328-2.125c2.291,0.001,4.581,0.601,6.874-0.027c3.64,1.188,7.294,1.878,11.018,0.337
		c13.624,0.548,27.27,0.664,40.875,0.097c15.279-0.639,30.522,0.538,45.781,0.101c8.756-0.252,17.518,0.37,26.269-0.228
		C604.571,230.126,608.321,231.177,611.601,233.505z"/>
	<path fill-rule="evenodd" clip-rule="evenodd" fill="#DD3302" d="M600.67,229.489c-0.676,2.702-2.897,1.752-4.532,1.763
		c-11.904,0.072-23.822,0.406-35.709-0.041c-22.294-0.839-44.57,0.666-66.854,0.067c-2.081-0.056-4.444,0.664-5.829-1.76
		c1.288-1.444,2.575-2.889,3.863-4.334c1.773-0.56,3.598-0.516,5.428-0.512c20.593,0.041,41.186,0.004,61.778,0.023
		c6.602,0.007,13.219-0.315,19.773,0.834C585.948,226.849,593.31,228.169,600.67,229.489z"/>
	<path fill-rule="evenodd" clip-rule="evenodd" fill="#FA6202" d="M682.647,195.425c-0.621,1.087-1.359,1.717-2.805,1.479
		c-5.928-0.975-11.865-0.156-17.789-0.146c-5.838,0.01-11.715,0.642-17.496,0.171c-5.777-0.47-11.418,0.854-17.215,0.196
		c-6.092-0.691-12.295-0.262-18.465-0.639c-6.662-0.407-13.396,0.359-20.1,0.621c-0.996,0.039-2.041,0.352-2.979,0.146
		c-7.917-1.743-15.934-0.292-23.906-0.731c-9.666-0.532-19.5,1.24-29.089,0.288c-6.792-0.675-13.367,1.56-20.192-0.093
		c-3.203-0.776-7.123-0.139-10.619,0.18c-2.918,0.265-5.553,0.082-8.28-0.608c-0.606-0.668-0.608-1.335,0.004-2.001
		c1.987,0.001,3.975,0.002,5.962,0.002c2.333,0.231,4.667,0.231,7,0c2,0,4,0,6,0.001c6-0.414,12,0.806,18-0.001
		c24.423-1.054,48.857,0.589,73.289-0.354c9.65-0.372,19.354,0.569,29,0.158c13.713-0.585,27.405,0.395,41.107,0
		c1.816-0.053,3.201-0.462,4.51-1.554C679.94,193.502,681.294,194.463,682.647,195.425z"/>
	<path fill-rule="evenodd" clip-rule="evenodd" fill="#FED271" d="M549.637,125.191c0.585-0.668,1.17-1.336,1.755-2.004
		c2.269-1.2,4.697-1.414,7.231-1.411c34.696,0.046,69.393,0.079,104.09-0.021c2.355-0.007,4.579,0.791,6.914,0.693
		c2.501,0.999,5.017,1.971,7.143,3.694c-0.181,2.755-2.474,2.57-4.069,2.429c-13.403-1.183-26.835,1.152-40.253-0.532
		c-4.201-0.527-8.549,0.462-12.849,0.611c-11.296,0.391-22.597,0.159-33.86-0.151c-10.27-0.282-20.503,0.938-30.737,0.135
		C552.854,128.464,549.043,129.99,549.637,125.191z"/>
	<path fill-rule="evenodd" clip-rule="evenodd" fill="#FE8515" d="M728.667,172.295c-18.816,0.976-37.629-0.35-56.449-0.068
		c-19.422,0.29-38.869-0.437-58.271,0.256c-11.209,0.4-22.467,0.218-33.609,0.186c-16.201-0.047-32.449,0.104-48.671-0.326
		c-11.063-0.295-22.139-0.108-33.209-0.138c0.487-0.638,0.974-1.274,1.461-1.911c2.633-1.189,5.407-1.436,8.268-1.435
		c68.428,0.018,136.855,0.017,205.283,0.011c3.183-0.001,6.307,0.303,9.324,1.378C725.054,170.06,726.929,170.981,728.667,172.295z"
		/>
	<path fill-rule="evenodd" clip-rule="evenodd" fill="#DC3202" d="M673.769,232.242c-2.505-1.073-5.057-2.062-7.113-3.942
		c2.047-1.972,4.656-1.493,7.102-1.542c10.303-0.204,20.613,0.357,30.912-0.29c8.322,3.174,16.711,1.188,25.094,0.35
		c14.373-1.438,28.748-2.973,43.174-0.557c2.83,0.474,5.438,1.447,7.73,3.197c0.371,3.769-2.621,3.147-4.621,3.247
		c-6.477,0.323-12.971,0.09-19.457,0.106c-25.293,0.064-50.586-0.184-75.878,0.102C678.358,232.939,676.077,232.513,673.769,232.242
		z"/>
	<path fill-rule="evenodd" clip-rule="evenodd" fill="#FE8D1E" d="M626.854,164.194c6.569,0.017,13.139,0.034,19.708,0.051
		c20.583-1.536,41.188-0.035,61.779-0.428c1.128-0.021,2.328-0.263,3.372,0.461c1.911,1.231,4.501,1.075,6.085,2.975
		c-1.726,1.809-4,1.429-6.119,1.43c-66.994,0.034-133.989,0.034-200.984,0c-2.118-0.001-4.394,0.38-6.119-1.431
		c3.42-1.917,7.219-2.512,11.005-3.147C552.673,163.62,589.764,163.407,626.854,164.194z"/>
	<path fill-rule="evenodd" clip-rule="evenodd" fill="#D12402" d="M789.741,237.184c2.68,1.821,4.314,4.454,6.6,8.257
		c-15.129-2.499-29.303-4.967-43.623-2.129c-18.883,0.839-37.771,0.771-56.662,0.377c-0.535-0.011-0.95-0.184-1.391-0.393
		c-3.373-1.092-6.555-2.549-9.271-4.884c1.803-1.985,4.246-1.708,6.531-1.714c30.955-0.077,61.91,0.071,92.865-0.061
		C786.474,236.631,788.089,237.022,789.741,237.184z"/>
	<path fill-rule="evenodd" clip-rule="evenodd" fill="#F75B02" d="M741.603,200.601c-1.449,2.341-3.803,1.668-5.881,1.67
		c-28.129,0.029-56.256,0.02-84.383,0.02c-8.959,0-17.919,0.02-26.878-0.008c-4.976-0.016-9.955-0.188-14.843,1.031
		c-4.811-0.611-9.593-1.356-14.209-2.924c2.865-0.944,5.803-1.133,8.816-1.13c41.21,0.045,82.42,0.04,123.631-0.002
		c1.92-0.002,4.008,0.684,5.754-0.789C736.274,199.18,738.938,199.89,741.603,200.601z"/>
	<path fill-rule="evenodd" clip-rule="evenodd" fill="#E23A02" d="M578.588,225.53c-1.434,1.244-3.169,0.737-4.774,0.739
		c-25.698,0.03-51.396,0.033-77.094-0.006c-1.739-0.002-3.702,0.652-5.111-1.078c0.374-1.299,0.749-2.597,1.124-3.896
		c1.603-1.53,3.622-1.479,5.629-1.489c23.121-0.117,46.241-0.194,69.362-0.021c2.182,0.017,4.347-0.019,6.185,1.431
		C575.763,222.331,576.153,225.037,578.588,225.53z"/>
	<path fill-rule="evenodd" clip-rule="evenodd" fill="#F15202" d="M493.718,194.288c-0.001,0.667-0.003,1.334-0.005,2.001
		c0.001,1.666,0.003,3.332,0.004,4.998c1.641,1.991,3.927,1.493,6.04,1.496c22.971,0.032,45.941-0.014,68.911,0.039
		c2.438,0.006,5.057-0.55,7.093,1.492c-0.707,1.658-1.414,3.317-2.121,4.976c-1.598,1.491-3.614,1.574-5.611,1.579
		c-23.088,0.052-46.175,0.069-69.263-0.007c-1.33-0.005-2.658-0.106-3.924-0.572c-2.441-0.926-1.281-3.212-1.827-4.857
		c-0.075-5.109-1.009-10.252,0.574-15.3C493.632,191.517,493.675,192.903,493.718,194.288z"/>
	<path fill-rule="evenodd" clip-rule="evenodd" fill="#D52902" d="M789.741,237.184c-1.582,1.849-3.727,1.067-5.621,1.072
		c-32.908,0.088-65.816,0.115-98.726,0.156c-2.171-0.59-4.144-1.552-5.813-3.084c1.773-2.599,4.535-2.509,7.168-2.483
		c19.4,0.188,38.801,0.005,58.201,0.253c10.572,0.135,21.195,0.36,31.783-0.274c2.986-0.179,5.963,0.022,8.914,0.537
		C787.372,234.25,788.708,235.553,789.741,237.184z"/>
	<path fill-rule="evenodd" clip-rule="evenodd" fill="#FEBF5A" d="M698.674,133.459c20.386,4.141,40.63-0.298,61.724-1.279
		c-2.457,2.838-4.426,5.076-7.373,6.234c-2.664,1.067-5.428,1.395-8.295,1.391c-28.437-0.034-56.872-0.027-85.308-0.014
		c-3.675,0.002-7.252-0.604-10.8-1.479c-3.155-0.543-6.197-1.429-9.014-2.995c1.862-1.916,4.289-1.522,6.563-1.493
		c16.559,0.211,33.125-0.546,49.678,0.398C696.864,134.281,697.823,134.051,698.674,133.459z"/>
	<path fill-rule="evenodd" clip-rule="evenodd" fill="#EC4A02" d="M639.723,214.171c-2.122-0.732-4.341-1.265-6.042-2.881
		c1.344-1.524,3.214-1.708,5.023-1.768c12.57-0.411,25.158,0.033,37.723-0.041c13.559-0.079,27.193,0.113,40.785,0.229
		c11.9,0.101,23.834,0.414,35.732-0.464c2.852-0.21,5.617,0.588,8.443,0.718c1.482,0.068,2.971,0.598,4.285-0.534
		c3.254,0.718,6.295,1.918,8.967,3.956c-2.197,3.981-6.049,2.422-9.248,2.573c-13.252,0.631-26.533-0.799-39.783,0.491
		c-3.43,0.024-6.419-1.666-9.625-2.507c-5.707-1.496-11.389-2.394-17.191-0.612c-1.377,1.107-3.001,1.365-4.697,1.344
		C675.972,214.448,657.838,215.299,639.723,214.171z"/>
	<path fill-rule="evenodd" clip-rule="evenodd" fill="#FE6D02" d="M674.665,187.326c-2.934,3.564-7.143,1.676-10.447,1.73
		c-25.301,0.423-50.613,0.232-75.921,0.232c-19.228,0.001-38.456,0.002-57.683,0.002c-10.352,0-20.704-0.004-31.056,0.004
		c-1.997,0.002-4.012,0.163-5.809-0.986c0.023-0.339,0.046-0.678,0.07-1.018c2.36-2.053,5.595-2.13,8.073-1.778
		c6.494,0.922,12.933,0.008,19.385,0.221c9.784,0.322,19.604,0.202,29.41,0.107c9.44-0.092,18.894,0.038,28.322-0.151
		c18.064-0.362,36.117,0.328,54.182,0.015c10.434-0.181,20.904-0.255,31.35,0.222c2.842,0.129,5.648-0.13,8.418-0.778
		c0.283,0.011,0.567,0.025,0.852,0.04C674.095,185.9,674.38,186.613,674.665,187.326z"/>
	<path fill-rule="evenodd" clip-rule="evenodd" fill="#FBE990" d="M567.609,108.158c1.818-2.375,4.668-3.167,7.087-4.619
		c15.869-0.849,31.734-1.181,47.573,0.512c1.224,0.131,2.291-0.049,3.361-0.542c4.479,1.259,9.007,2.384,13.149,4.605
		c-0.155,3.396-2.973,3.48-5.051,3.351c-8.799-0.55-17.586,0.156-26.379-0.036c-6.436-0.14-12.903-0.96-19.331-0.003
		c-5.989,0.893-11.901-0.629-17.871-0.39C568.607,111.097,567.247,110.184,567.609,108.158z"/>
	<path fill-rule="evenodd" clip-rule="evenodd" fill="#FECC6B" d="M549.637,125.191c0.434,2.765,2.625,2.134,4.315,2.064
		c7.956-0.323,16.012-0.634,23.859-0.464c7.676,0.167,15.439-0.034,23.151,0.3c9.889,0.429,19.866,0.84,29.786-0.652
		c2.518-0.379,5.225,0.746,7.854,0.813c11.016,0.283,22.029-1.145,33.057-0.017c1.705,0.175,3.72,0.688,5.111-1.093
		c2.55,0.529,4.848,1.596,6.875,3.234c-0.256,2.205-2.022,2.038-3.385,1.831c-5.968-0.906-11.852-0.164-17.798,0.323
		c-7.229,0.591-14.459-0.671-21.75-0.595c-8.051,0.085-16.191,0.428-24.252-0.571c-2.51,0.003-5.02,0.007-7.529,0.011
		c-6.388,0.68-12.745,0.865-19.204,0.817c-6.852-0.05-13.762-0.742-20.729-0.061c-6.799,0.666-13.803-0.239-20.721-0.333
		c-0.836-0.012-1.422-0.778-1.769-1.583C547.032,127.471,548.179,126.209,549.637,125.191z"/>
	<path fill-rule="evenodd" clip-rule="evenodd" fill="#FE7608" d="M494.907,180.24c1.786-1.222,3.82-0.946,5.801-0.946
		c56.56-0.004,113.119-0.009,169.679,0.024c1.76,0.001,3.688-0.624,5.245,0.834c-0.591,0.799-1.181,1.598-1.77,2.397
		c-2.993,0.31-5.994,0.146-8.992,0.147c-53.975,0.008-107.949,0.023-161.923-0.024c-2.759-0.003-5.72,0.717-8.157-1.381
		C494.829,180.941,494.868,180.59,494.907,180.24z"/>
	<path fill-rule="evenodd" clip-rule="evenodd" fill="#FE7205" d="M673.69,183.291c0.039,0.633,0.078,1.265,0.118,1.897
		c0.001-0.001-0.233,0.167-0.233,0.167c-2.358,1.09-4.878,0.976-7.371,0.923c-20.57-0.439-41.146-0.098-61.721-0.281
		c-14.391-0.129-28.815,0.111-43.22,0.165c-14.926,0.057-29.86,0.228-44.799-0.138c-5.903-0.144-11.924-0.409-17.879,0.191
		c-1.831,0.186-3.741,0.188-4.742-1.889c0.139-0.392,0.277-0.784,0.416-1.176c1.831-1.095,3.866-0.849,5.849-0.849
		c55.935-0.009,111.869-0.015,167.804,0.008C669.875,182.311,671.945,181.912,673.69,183.291z"/>
	<path fill-rule="evenodd" clip-rule="evenodd" fill="#FE8919" d="M722.792,170.248c-74.293,0.016-148.584,0.03-222.876,0.046
		c0.17-0.746,0.722-1.018,1.402-1.13c3.8-1.904,7.815-0.818,11.757-0.889c13.434-0.24,26.883-0.75,40.301-0.36
		c20.875,0.605,41.738-0.223,62.613,0.096c17.705,0.27,35.445-0.262,53.165-0.13c16.526,0.123,33.054-0.043,49.578,0.31
		C720.327,168.4,721.739,168.97,722.792,170.248z"/>
	<path fill-rule="evenodd" clip-rule="evenodd" fill="#FE7306" d="M673.69,183.291c-57.479,0-114.956,0.002-172.434-0.006
		c-2.331,0-4.662-0.087-6.995-0.134c0.175-0.62,0.351-1.239,0.527-1.859c57.672,0,115.343-0.01,173.015,0.037
		c2.044,0.002,4.384-0.868,6.057,1.22C673.897,182.818,673.841,183.065,673.69,183.291z"/>
	<path fill-rule="evenodd" clip-rule="evenodd" fill="#D82E02" d="M785.647,233.361c-6.068,1.827-12.33,0.852-18.494,1.175
		c-6.543,0.343-13.156-0.827-19.66,0.398c-3.25,0.612-6.154-0.786-9.324-0.745c-16.746,0.216-33.498,0.134-50.248,0.07
		c-2.853-0.011-5.623,0.209-8.34,1.069c-2.17-0.591-4.177-1.49-5.813-3.087c1.964-1.218,4.155-0.948,6.3-0.949
		c31.705-0.003,63.412,0.023,95.117-0.065c1.867-0.005,4.5,1.364,5.482-1.771C782.591,230.423,784.228,231.753,785.647,233.361z"/>
	<path fill-rule="evenodd" clip-rule="evenodd" fill="#EA4602" d="M572.692,213.292c0.059,1.651,0.117,3.304,0.175,4.956
		c-4.909,2.367-10.1,0.578-15.134,0.836c-11.406,0.586-22.821-0.581-34.3,0.107c-8.36,0.501-16.847,0.217-25.277,0.278
		c-2.071,0.015-4.019-0.303-4.903-2.593c0.087-1.467-0.575-3.095,0.943-4.243c2.16-1.137,4.514-0.949,6.82-0.952
		c21.376-0.025,42.751-0.038,64.127,0.016C567.732,211.704,570.508,211.205,572.692,213.292z"/>
	<path fill-rule="evenodd" clip-rule="evenodd" fill="#FE9729" d="M523.5,161.215c1.685-0.991,3.37-1.981,5.054-2.973
		c2.241-1.275,4.672-1.594,7.215-1.593c20.629,0.005,41.259,0.022,61.888-0.01c3.208-0.006,6.25,0.758,9.306,1.547
		c2.843,0.453,5.358,1.752,7.879,3.039c-2.183,2.656-5.251,2.565-8.226,2.534c-21.021-0.226-42.042,0.239-63.064-0.174
		c-4.454-0.088-8.942,0.171-13.416,0.17C527.626,163.756,525.103,163.652,523.5,161.215z"/>
	<path fill-rule="evenodd" clip-rule="evenodd" fill="#FE9223" d="M523.5,161.215c2.706,0.862,5.463,1.115,8.314,1.107
		c22.742-0.059,45.484-0.034,68.226-0.031c4.959,0.001,9.937,0.262,14.801-1.065c4.004,0.989,8.008,1.979,12.012,2.968
		c-1.939,1.238-4.113,1.104-6.28,1.103c-15.084-0.013-30.167-0.007-45.251-0.007c-18.051,0-36.102,0.024-54.152-0.035
		c-1.89-0.006-4.051,0.789-5.587-1.149C518.221,163.141,520.861,162.178,523.5,161.215z"/>
	<path fill-rule="evenodd" clip-rule="evenodd" fill="#F05002" d="M624.54,207.566c1.648-2.143,4-1.231,6.034-1.234
		c39.075-0.056,78.151-0.027,117.228-0.08c2.039-0.003,4.385,0.889,6.043-1.232c1.932,0.794,3.861,1.589,5.791,2.384
		c-0.064,2.232-1.902,2.083-3.242,2.149c-8.57,0.43-17.17,0.505-25.729,0.286c-5.098-0.13-10.227-0.012-15.295,0.018
		c-5.743,0.034-11.499-0.311-17.271-0.103c-11.52,0.414-23.082,0.273-34.623,0.172c-9.893-0.088-19.781-0.673-29.668,0.175
		c-1.516,0.13-2.969-0.258-4.4-0.71C627.564,209.37,625.998,208.612,624.54,207.566z"/>
	<path fill-rule="evenodd" clip-rule="evenodd" fill="#FE6D02" d="M493.844,184.327c2.118,1.393,4.508,0.95,6.81,0.951
		c57.641,0.037,115.282,0.056,172.923,0.077c-1.553,1.916-3.707,1.95-5.906,1.942c-19.93-0.071-39.861-0.167-59.791-0.173
		c-15.672-0.005-31.354,0.467-47.014,0.062c-14.806-0.384-29.61,0.174-44.43-0.324c-7.405-0.249-15.112-0.883-22.617,0.429
		C493.827,186.303,493.836,185.315,493.844,184.327z"/>
	<path fill-rule="evenodd" clip-rule="evenodd" fill="#FDD677" d="M669.628,122.448c-0.906,0.985-2.108,0.842-3.264,0.841
		c-38.324-0.031-76.646-0.066-114.971-0.101c0.938-1.417,1.722-2.97,3.35-3.772c5.214-1.54,10.52-0.107,15.75-0.161
		c18.042-0.185,36.089-0.62,54.137-0.338c13.01,0.204,26.016,0.781,39.031,0.438C665.649,120.386,667.639,121.417,669.628,122.448z"
		/>
	<path fill-rule="evenodd" clip-rule="evenodd" fill="#FE7407" d="M695.686,181.065c4.141-3.091,9.005-1.469,13.418-1.578
		c8.94-0.222,17.907-0.349,26.903,0.313c4.756,0.351,9.898-0.227,14.857-0.586c7.211-0.001,14.422-0.001,21.635-0.001
		c-4.934,3.405-10.268,5.33-15.83,6.67c-1.691-0.85-3.615-1.053-5.361-0.958c-12.441,0.68-24.881-0.55-37.316,0.11
		c-0.854,0.046-1.591,0.45-2.306,0.887C706.353,184.303,701.019,182.684,695.686,181.065z"/>
	<path fill-rule="evenodd" clip-rule="evenodd" fill="#CC1F03" d="M694.665,243.296c2.545-0.747,5.119-1.055,7.797-1.041
		c14.664,0.074,29.328,0.037,43.994,0.033c2.145-0.001,4.318-0.203,6.262,1.023C733.364,251.013,714.013,253.622,694.665,243.296z"
		/>
	<path fill-rule="evenodd" clip-rule="evenodd" fill="#ED4B02" d="M572.692,213.292c-26.327-0.001-52.655-0.001-78.982-0.002
		c-0.771-1.332-0.766-2.664-0.003-3.998c26.645,0,53.29-0.001,79.934-0.002C573.743,210.723,573.446,212.061,572.692,213.292z"/>
	<path fill-rule="evenodd" clip-rule="evenodd" fill="#F04F02" d="M629.407,209.39c13.531-1.202,27.055-0.742,40.613-0.313
		c10.84,0.343,21.716-0.616,32.578-0.717c8.758-0.081,17.52,0.329,26.279,0.389c8.883,0.062,17.77-0.044,26.652-0.064
		c1.51-0.004,2.955-0.157,4.105-1.281c2.016,0.664,3.783,2.07,6.037,2.027c-0.766,3-3.289,1.963-4.957,1.776
		c-11.213-1.252-22.494-0.562-33.656-0.293c-13.951,0.336-27.906,0.084-41.84,0.129c-12.764,0.041-25.557,0.771-38.371-0.158
		c-4.197-0.304-8.821-0.766-13.168,0.406C632.063,211.09,630.631,210.475,629.407,209.39z"/>
	<path fill-rule="evenodd" clip-rule="evenodd" fill="#FCDD81" d="M653.657,114.357c1.875,0.241,3.367,1.319,4.92,2.262
		c-0.639,3.698-3.691,2.899-5.943,2.87c-15.77-0.198-31.538-0.138-47.307-0.219c-14.762-0.075-29.524,0.461-44.284-0.029
		c-1.597-0.053-3.893,0.859-4.364-1.953c0.626-1.372,1.832-2.095,3.094-2.755c10.573-1.514,21.204-0.544,31.805-0.657
		c18.431-0.198,36.865,0.081,55.296-0.181C649.208,113.661,651.296,115.312,653.657,114.357z"/>
	<path fill-rule="evenodd" clip-rule="evenodd" fill="#C01002" d="M591.561,257.333c13.054-2.048,26.185-1.199,39.296-1.039
		c2.686,0.032,5.182-0.747,7.656-1.653c1.688,0.154,3.375,0.308,5.063,0.461c6.377-0.5,12.766-0.488,19.146-0.265
		c1.906,0.066,4.51-0.571,5.02,2.54c-0.393,0.972-0.785,1.943-1.178,2.914c-1.912,1.75-4.307,1.571-6.605,1.542
		c-14.59-0.185-29.188,0.511-43.771-0.368c-0.853-0.052-1.63,0.239-2.419,0.492C606.366,260.416,598.964,258.874,591.561,257.333z"
		/>
	<path fill-rule="evenodd" clip-rule="evenodd" fill="#FEBA53" d="M648.622,138.312c34.801,0.034,69.6,0.068,104.402,0.103
		c-1.332,1.557-3.025,2.511-5,2.998c-2.688,0.956-5.457,1.342-8.313,1.336c-24.613-0.057-49.225-0.102-73.837,0.025
		c-3.195,0.017-6.226-0.784-9.296-1.446C653.753,140.782,651.083,139.824,648.622,138.312z"/>
	<path fill-rule="evenodd" clip-rule="evenodd" fill="#FE891A" d="M718.732,168.19c-0.543,0.341-1.21,1.086-1.61,0.963
		c-6.481-1.991-13.006,0.787-19.643-0.481c-5.641-1.077-11.744-0.313-17.504,0.089c-3.894,0.272-7.484-0.835-11.252-0.507
		c-10.504,0.914-21.094,0.538-31.577,0.527c-13.713-0.014-27.476,0.093-41.214-0.378c-8.365-0.286-16.805,1.178-25.141,0.679
		c-8.728-0.521-17.607-1.811-26.116-0.484c-8.977,1.399-17.747-1.484-26.659,0.524c-5.374,1.212-11.11-0.799-16.696,0.042
		c0.83-1.071,1.818-1.876,3.257-1.912c71.073,0,142.147,0.001,213.221,0.001C718.11,167.565,718.421,167.877,718.732,168.19z"/>
	<path fill-rule="evenodd" clip-rule="evenodd" fill="#FE9D30" d="M606.963,158.187c-26.136,0.019-52.272,0.037-78.408,0.056
		c1.37-1.319,2.74-2.639,4.11-3.957c2.023-1.41,4.318-1.505,6.681-1.502c17.284,0.024,34.568,0.032,51.852-0.006
		c2.704-0.006,5.29,0.384,7.786,1.403C601.851,155.104,604.483,156.492,606.963,158.187z"/>
	<path fill-rule="evenodd" clip-rule="evenodd" fill="#E64002" d="M493.71,217.289c6.258,1.722,12.666,0.595,18.965,0.66
		c9.846,0.103,19.705-0.91,29.577-0.582c6.62,0.22,13.227,0.422,19.861,0.096c3.563-0.175,7.167,0.496,10.753,0.785
		c0.347,0.987,0.694,1.975,1.041,2.962c-27.058,0.027-54.117,0.054-81.175,0.08c0.06-0.69,0.12-1.381,0.18-2.071
		C493.347,218.645,492.956,217.73,493.71,217.289z"/>
	<path fill-rule="evenodd" clip-rule="evenodd" fill="#B80702" d="M564.753,267.418c-1.124,1.428-2.174,2.921-3.383,4.272
		c-4.796,5.36-9.791,6.527-16.529,3.675c-5.048-2.137-9.794-4.853-14.08-8.313c0.286-3.005,2.689-3.115,4.774-3.185
		c8.1-0.269,16.209-0.279,24.308,0.007C562.055,263.953,564.724,264.026,564.753,267.418z"/>
	<path fill-rule="evenodd" clip-rule="evenodd" fill="#FAEE97" d="M625.631,103.508c-3.596,3.904-8.363,1.503-12.089,1.244
		c-9.325-0.648-18.608,0.039-27.883-0.418c-3.641-0.18-7.483,1.602-10.963-0.796c10.385-6.523,21.474-8.273,33.322-4.939
		C613.886,100.25,619.76,101.873,625.631,103.508z"/>
	<path fill-rule="evenodd" clip-rule="evenodd" fill="#C01102" d="M514.559,257.516c4.738-2.783,10.018-1.238,14.953-1.423
		c12.476-0.466,24.989,0.093,37.487,0.184c4.955,0.037,9.919-0.196,14.786,1.05c-4.173,1.314-8.613,1.972-12.122,4.921
		c-15.635-0.799-31.275-0.505-46.916-0.208C520.018,260.532,517.288,259.024,514.559,257.516z"/>
	<path fill-rule="evenodd" clip-rule="evenodd" fill="#F55902" d="M575.761,204.314c-25.736-0.008-51.472,0-77.208-0.053
		c-2.096-0.004-5.075,1.008-4.835-2.975c28.396,0.029,56.792,0.06,85.189,0.089C577.858,202.355,576.81,203.334,575.761,204.314z"/>
	<path fill-rule="evenodd" clip-rule="evenodd" fill="#FCE185" d="M653.657,114.357c-1.177,1.341-2.766,0.918-4.214,0.919
		c-28.625,0.021-57.249,0.018-85.875,0.006c-1.301-0.001-2.69,0.302-3.796-0.749c1.296-1.093,2.592-2.186,3.889-3.278
		c14.084,0.039,28.175,0.516,42.25,0.258c13.594-0.248,27.186,0.105,40.774-0.231C649.353,111.53,651.243,113.537,653.657,114.357z"
		/>
	<path fill-rule="evenodd" clip-rule="evenodd" fill="#FCD97C" d="M556.679,117.288c1.474,1.64,3.432,0.972,5.18,0.975
		c30.276,0.039,60.554,0.038,90.831,0.007c2.074-0.002,4.435,0.7,5.887-1.651c1.694,0.913,3.389,1.825,5.084,2.737
		c-5.035,3.016-10.561,1.729-15.818,1.385c-4.809-0.313-9.589-0.935-14.291,0.196c-2.166,0.521-3.896-0.578-5.83-0.584
		c-15.271-0.054-30.555-0.388-45.811,0.097c-8.668,0.275-17.284,0.11-25.92-0.288c-0.427-0.02-0.833-0.486-1.248-0.745
		C555.389,118.707,556.034,117.998,556.679,117.288z"/>
	<path fill-rule="evenodd" clip-rule="evenodd" fill="#BD0C02" d="M613.769,261.957c1.31-2.136,3.445-1.654,5.393-1.656
		c15.801-0.018,31.602-0.01,47.402-0.01c-0.158,2.104-1.441,3.587-2.783,5.036c-2.232,1.34-4.689,1.57-7.223,1.545
		c-9.313-0.094-18.632,0.292-27.932-0.475C623.673,264.917,618.722,263.437,613.769,261.957z"/>
	<path fill-rule="evenodd" clip-rule="evenodd" fill="#FEA93E" d="M534.68,151.29c0.674-1.33,1.349-2.661,2.023-3.991
		c1.325-1.186,2.929-1.479,4.637-1.482c16.303-0.026,32.607-0.021,48.91,0c1.008,0.002,1.994,0.119,2.883,0.651
		c0.592,1.585,1.184,3.169,1.775,4.754c-1.67,1.835-3.906,1.545-6.028,1.548c-16.045,0.027-32.091,0.025-48.136,0.001
		C538.619,152.767,536.388,153.058,534.68,151.29z"/>
	<path fill-rule="evenodd" clip-rule="evenodd" fill="#E84503" d="M725.608,216.451c5.756-2.897,12.057-2.109,18.047-1.991
		c9.609,0.189,19.199,0.466,28.791-0.208c0.748-0.053,1.465-0.566,2.195-0.865c3.607,0.124,6.391,2.126,10.58,4.512
		C764.405,218.933,744.95,220.97,725.608,216.451z"/>
	<path fill-rule="evenodd" clip-rule="evenodd" fill="#BC0C02" d="M522.747,262.04c0.976-1.747,2.627-1.761,4.336-1.758
		c12.795,0.017,25.59,0.019,38.385-0.002c1.741-0.003,3.346,0.138,4.194,1.968c-1.637,1.724-3.273,3.446-4.91,5.17
		c-0.785-1.785-2.271-2.146-4.05-2.14c-8.721,0.032-17.443,0.027-26.164,0.003c-1.573-0.005-2.949,0.263-3.777,1.772
		C528.09,265.381,525.418,263.71,522.747,262.04z"/>
	<path fill-rule="evenodd" clip-rule="evenodd" fill="#D82F04" d="M643.333,235.417c-5.599-1.954-10.951-0.354-16.4,1.577
		c1.176-6.126,5.102-10.248,11.193-10.304c9.484-0.088,18.771,1.419,26.591,7.591c-0.372,0.556-0.862,1.172-1.497,1.155
		C656.59,235.266,649.957,237.094,643.333,235.417z"/>
	<path fill-rule="evenodd" clip-rule="evenodd" fill="#FE9123" d="M711.713,164.278c-2.56,0.756-5.147,1.063-7.839,1.048
		c-13.078-0.079-26.182,0.418-39.229-0.238c-6.018-0.303-12.176,1.53-18.084-0.843c4.876-1.621,9.872-2.64,15.001-2.997
		c14.386-1.709,28.771-2.534,43.154,0.03C707.269,161.766,709.713,162.503,711.713,164.278z"/>
	<path fill-rule="evenodd" clip-rule="evenodd" fill="#FBE48A" d="M646.686,111.281c-2.508,3.196-5.954,1.25-8.929,1.474
		c-9.971,0.752-20.003-1.655-29.957,0.38c-2.291,0.469-4.271-1.073-6.337-0.733c-11.249,1.852-22.561-1.29-33.817,0.506
		c-1.231,0.196-2.982-0.313-3.984-1.652c0.903-1.559,2.49-2.245,3.948-3.097c0.537,1.098,1.239,2.032,2.604,1.991
		c11.422-0.34,22.925-0.864,34.253-0.382c9.184,0.391,18.387-1.111,27.532,0.464c2.44,0.421,5.044,0.25,6.782-2.117
		C641.606,108.693,644.244,109.742,646.686,111.281z"/>
	<path fill-rule="evenodd" clip-rule="evenodd" fill="#FEB149" d="M668.693,146.287c-1.601-0.239-3.058-0.81-4.307-1.861
		c1.335-2.266,3.582-2.113,5.733-2.116c22.077-0.026,44.154-0.025,66.23,0.001c2.313,0.003,4.711-0.127,6.381,1.994
		c-1.117,1.126-2.488,1.738-4.035,1.992c-3.691,1.044-7.432,1.468-11.287,1.446c-15.807-0.089-31.613-0.068-47.42-0.015
		C676.146,147.741,672.392,147.297,668.693,146.287z"/>
	<path fill-rule="evenodd" clip-rule="evenodd" fill="#FEB64E" d="M594.492,140.288c-0.333,1.018-0.666,2.035-0.999,3.052
		c-0.941,1.92-2.697,2.374-4.584,2.384c-15.265,0.085-30.529,0.149-45.792-0.05c-2.136-0.028-4.472-0.413-4.491-3.473
		c0.009-0.795,0.207-1.501,0.935-1.952c4.335-2.496,9.083-1.322,13.62-1.285c11.743,0.095,23.484-0.276,35.225-0.058
		C590.507,138.945,592.767,138.5,594.492,140.288z"/>
	<path fill-rule="evenodd" clip-rule="evenodd" fill="#FD6E04" d="M711.686,185.922c0.378-2.408,2.147-2.894,4.081-2.589
		c7.83,1.232,15.738-1.234,23.611,0.822c3.467,0.905,7.102-1.391,10.814-0.891c2.414,0.326,4.967,0.128,6.477,2.619
		C741.679,190.169,726.685,191.332,711.686,185.922z"/>
	<path fill-rule="evenodd" clip-rule="evenodd" fill="#E94502" d="M648.362,218.41c-2.174-0.596-4.168-1.548-5.928-2.97
		c0.809-1.651,2.322-1.635,3.84-1.635c16.921-0.007,33.842,0.025,50.763,0.017c0.532,0,0.948,0.243,1.388,0.467
		c-0.257,1.334-0.513,2.668-0.77,4.002c-1.314,1.252-2.966,1.386-4.648,1.38c-12.784-0.049-25.566,0.009-38.35,0.115
		C652.47,219.804,650.392,219.187,648.362,218.41z"/>
	<path fill-rule="evenodd" clip-rule="evenodd" fill="#FEC05B" d="M540.567,138.26c0.228-2.165,1.797-3.513,3.069-5.041
		c7.556,0.234,15.107-0.852,22.69,0.396c3.692,0.607,7.549,0.392,11.355-0.221c6.746-1.084,13.373-0.19,19.854,1.891
		c-0.669,1.001-1.338,2.001-2.007,3.002c-1.448,1.06-3.133,0.993-4.797,0.993c-15.313,0.002-30.625,0.05-45.937-0.013
		C543.326,139.262,541.759,139.502,540.567,138.26z"/>
	<path fill-rule="evenodd" clip-rule="evenodd" fill="#FE7105" d="M473.658,183.227c-0.214,1.569-0.92,2.9-1.971,4.065
		c-0.945,1.542-2.391,2.318-4.129,2.394c-6.953,0.303-13.909,0.34-20.861-0.022c-1.174-0.062-2.276-0.45-3.091-1.392
		c0.437-2.665,1.987-4.785,3.408-6.97c1.988-1.515,4.317-1.606,6.669-1.591c5.33,0.033,10.671-0.252,15.983,0.172
		C471.503,180.029,474.487,179.572,473.658,183.227z"/>
	<path fill-rule="evenodd" clip-rule="evenodd" fill="#FEA337" d="M534.68,151.29c20.075-0.022,40.15-0.045,60.227-0.068
		c1.358,0.986,2.716,1.974,4.075,2.96c-22.104,0.034-44.21,0.069-66.317,0.104C533.336,153.287,534.008,152.289,534.68,151.29z"/>
	<path fill-rule="evenodd" clip-rule="evenodd" fill="#FDC460" d="M698.674,133.459c-0.804,2.924-3.228,1.772-4.97,1.78
		c-18.031,0.091-36.063,0.068-54.095,0.077c-2.147-0.169-4.173-0.747-6.053-1.813c-0.029-2.131,1.585-2.419,3.056-2.38
		c6.103,0.163,12.189-0.45,18.308-0.015c9.423,0.67,18.854-0.738,28.32-0.072c2.755,0.193,5.535,0.979,8.346,0.522
		C693.991,132.036,696.075,133.705,698.674,133.459z"/>
	<path fill-rule="evenodd" clip-rule="evenodd" fill="#FEB54D" d="M742.731,144.304c-8.521-1.876-17.16-0.875-25.745-0.969
		c-14.599-0.16-29.2-0.007-43.8-0.075c-3.011-0.014-5.943,0.176-8.799,1.164c-2.82-0.484-5.373-1.642-7.809-3.097
		c30.48,0.028,60.962,0.057,91.445,0.085C746.761,143.292,744.405,143.174,742.731,144.304z"/>
	<path fill-rule="evenodd" clip-rule="evenodd" fill="#FEC865" d="M691.586,131.56c-1.618,1.269-3.514,0.698-5.28,0.704
		c-15.733,0.046-31.467,0-47.201,0.061c-1.881,0.007-4.036-0.774-5.547,1.179c-5.698-1.046-11.396-2.093-17.095-3.139
		c11.767-1.537,23.731-1.761,35.364-0.59c10.133,1.02,20.154-2.623,30.117,0.402c0.445,0.136,1.129-0.516,1.701-0.801
		C686.54,129.203,688.94,130.826,691.586,131.56z"/>
	<path fill-rule="evenodd" clip-rule="evenodd" fill="#B90803" d="M628.626,266.397c1.222-1.609,2.992-1.082,4.567-1.086
		c10.195-0.028,20.391,0.004,30.586,0.016c-5.062,7.595-12.353,8.773-20.44,6.641C638.279,270.632,633.286,268.894,628.626,266.397z
		"/>
	<path fill-rule="evenodd" clip-rule="evenodd" fill="#FEB047" d="M538.626,142.201c0.809,1.82,2.349,2.104,4.129,2.102
		c15.809-0.023,31.619,0.004,47.427-0.057c1.105-0.005,2.208-0.591,3.311-0.906c-0.119,1.042-0.238,2.084-0.359,3.127
		c-1.791,1.256-3.838,0.805-5.789,0.809c-16.881,0.03-33.762,0.021-50.642,0.023C536.968,145.458,537.435,143.693,538.626,142.201z"
		/>
	<path fill-rule="evenodd" clip-rule="evenodd" fill="#FC6702" d="M443.607,188.272c7.438,0.006,14.876,0.001,22.314,0.026
		c1.99,0.007,3.977,0.094,5.766-1.006c-0.73,2.015-1.46,4.028-2.19,6.043c-0.988,1.848-2.728,2.35-4.607,2.413
		c-6.132,0.208-12.271,0.296-18.397-0.043c-2.6-0.144-5.256-0.694-3.842-4.487C442.631,190.126,442.638,189.042,443.607,188.272z"/>
	<path fill-rule="evenodd" clip-rule="evenodd" fill="#F85F02" d="M442.65,191.218c0.124,1.29-0.029,3.009,1.817,2.949
		c8.343-0.271,16.749,1.217,25.03-0.832c-0.691,2.316-1.382,4.632-2.073,6.947c-1.258,1.317-2.922,1.507-4.588,1.542
		c-5.638,0.118-11.279,0.183-16.915-0.03c-3.635-0.137-5.781-1.558-4.301-5.657C441.653,194.432,441.389,192.666,442.65,191.218z"/>
	<path fill-rule="evenodd" clip-rule="evenodd" fill="#DF3702" d="M704.669,226.467c-0.656,2.714-2.881,1.773-4.519,1.785
		c-11.165,0.075-22.33,0.044-33.495,0.047c-2.034-0.453-3.822-1.359-5.281-2.87c1.897-2.788,4.871-2.436,7.646-2.57
		c10.271-0.497,20.532,0.896,30.807,0.203C701.441,224.198,703.056,225.333,704.669,226.467z"/>
	<path fill-rule="evenodd" clip-rule="evenodd" fill="#F55702" d="M441.621,196.137c-0.396,3.302,1.119,4.304,4.333,4.214
		c7.152-0.198,14.313-0.065,21.471-0.068c-0.303,1.354-0.605,2.706-0.908,4.06c-0.396,1.288-0.87,2.799-2.347,2.896
		c-7.481,0.488-15.028,2.042-22.366-0.951C441.658,202.905,440.08,199.549,441.621,196.137z"/>
	<path fill-rule="evenodd" clip-rule="evenodd" fill="#FEC865" d="M546.509,129.217c2.547,1.793,5.828,0.795,8.022,0.426
		c6.428-1.081,12.69,0.442,19.081-0.012c11.695-0.831,23.535,0.383,35.317,0.745c-2.671,0.667-5.344,1.335-8.017,2.002
		c-1.688,0.729-3.474,1.501-5.268,1.318c-10.418-1.059-20.85,0.745-31.261-0.271c-5.125-0.5-10.266,0.261-15.395-0.141
		c-1.614-0.126-3.368,0.328-4.671-1.108C544.699,130.932,545.364,129.897,546.509,129.217z"/>
	<path fill-rule="evenodd" clip-rule="evenodd" fill="#FEA93E" d="M730.823,149.534c-1.838,1.065-3.785,1.779-5.936,1.833
		c-9.604,2.624-19.393,1.335-29.102,1.203c-3.744-0.051-7.585-0.216-11.277-1.217c-2.507,0.096-4.772-0.77-7.009-1.754
		c0.035-2.54,2.009-2.25,3.546-2.258c15.387-0.08,30.773-0.077,46.16-0.001C728.733,147.347,730.712,147.012,730.823,149.534z"/>
	<path fill-rule="evenodd" clip-rule="evenodd" fill="#E33B02" d="M699.827,223.062c-3.479,2.384-7.319,2.032-11.262,1.744
		c-9.072-0.665-18.17-1.446-27.19,0.623c-2.097-0.672-4.067-1.581-5.741-3.049c0.222-3.443,2.855-2.51,4.783-2.491
		c12.465,0.119,24.922-0.077,37.369-0.767C698.467,220.436,699.147,221.75,699.827,223.062z"/>
	<path fill-rule="evenodd" clip-rule="evenodd" fill="#D32703" d="M643.333,235.417c7.086-1.169,14.249-0.879,21.384-1.136
		c2.671,1.587,4.489,3.792,5.019,6.93c0.038,0.335,0.055,0.901-0.029,0.909c-5.971,0.585-11.934,2.561-17.93,0.168
		C649.894,238.853,646.005,237.882,643.333,235.417z"/>
	<path fill-rule="evenodd" clip-rule="evenodd" fill="#FDAD44" d="M730.823,149.534c-1.16-1.708-2.951-1.224-4.545-1.227
		c-14.755-0.028-29.51-0.027-44.266-0.001c-1.597,0.002-3.387-0.454-4.512,1.293c-3.007-0.917-6.12-1.55-8.808-3.313
		c23.334,0.004,46.669,0.007,70.003,0.01C736.251,147.812,733.649,148.945,730.823,149.534z"/>
	<path fill-rule="evenodd" clip-rule="evenodd" fill="#DD3403" d="M476.729,229.182c-0.686,1.572-2.01,2.486-3.573,2.037
		c-7.909-2.274-15.754,1.15-23.628,0.115c-1.744-1.22-2.36-3.119-3.013-4.996c3.248-2.804,7.189-1.451,10.812-1.639
		c4.079-0.212,8.192,0.596,12.285-0.141C471.983,226.1,474.356,227.641,476.729,229.182z"/>
	<path fill-rule="evenodd" clip-rule="evenodd" fill="#E64002" d="M697.786,219.123c-4.723,2.878-10.105,1.788-15.1,1.952
		c-8.4,0.276-16.863,0.857-25.281-0.187c-0.961-0.119-1.392,0.739-1.771,1.492c-2.635-0.936-5.196-2.005-7.27-3.972
		c16.43-0.039,32.86-0.079,49.291-0.118C697.782,218.554,697.825,218.833,697.786,219.123z"/>
	<path fill-rule="evenodd" clip-rule="evenodd" fill="#FEC460" d="M544.319,132.177c18.864,0.067,37.729,0.134,56.593,0.201
		c-1.125,0.97-2.251,1.938-3.377,2.907c-11.956-1.82-24.017,0.953-36.005-0.9c-4.674-0.723-9.497,0.664-14.263-0.072
		c-1.279-0.197-2.701,0.217-3.631-1.094C543.864,132.872,544.091,132.525,544.319,132.177z"/>
	<path fill-rule="evenodd" clip-rule="evenodd" fill="#FE790B" d="M473.658,183.227c-0.516-2.761-2.73-1.887-4.363-1.902
		c-7.427-0.073-14.854-0.026-22.281-0.022c0.939-1.657,1.877-3.315,2.815-4.974c7.585-2.314,15.356-1.436,23.071-1.229
		c1.67,0.045,3.932,0.408,2.809,3.256C475.53,180.192,474.918,181.846,473.658,183.227z"/>
	<path fill-rule="evenodd" clip-rule="evenodd" fill="#E33C03" d="M469.611,224.559c-3.6,3.821-8.063,0.816-12.083,1.44
		c-3.602,0.559-7.336,0.26-11.013,0.339c-1.161-1.85-1.663-3.895-1.794-6.049c7.326-2.731,14.665-1.188,22.003-0.068
		C467.686,221.667,468.648,223.113,469.611,224.559z"/>
	<path fill-rule="evenodd" clip-rule="evenodd" fill="#EC4902" d="M443.739,216.289c-1.081-1.856-1.185-3.902-1.154-5.975
		c7.723-1.139,15.43-1.88,22.983,0.975c0.029,1.334,0.057,2.668,0.086,4.002C458.47,218.273,451.155,218.401,443.739,216.289z"/>
	<path fill-rule="evenodd" clip-rule="evenodd" fill="#F05003" d="M465.568,211.289c-7.661-0.325-15.322-0.649-22.983-0.975
		c-1.115-1.177-0.801-2.631-0.781-4.027c6.486,0.001,12.974-0.047,19.459,0.032c2.071,0.024,3.98-0.041,5.254-1.977
		C466.201,206.658,465.885,208.973,465.568,211.289z"/>
	<path fill-rule="evenodd" clip-rule="evenodd" fill="#FEBA54" d="M540.567,138.26c18.321,0.009,36.641,0.019,54.961,0.027
		c-0.346,0.667-0.69,1.333-1.035,2c-18.311-0.013-36.622-0.025-54.932-0.039C539.896,139.586,540.231,138.923,540.567,138.26z"/>
	<path fill-rule="evenodd" clip-rule="evenodd" fill="#FDA73C" d="M447.573,148.36c6.091-0.044,12.182-0.089,18.274-0.133
		c2.996,0.702,5.256,2.38,6.745,5.082c-7.708,2.67-15.423,2.339-23.144,0.064C448.329,151.887,447.687,150.222,447.573,148.36z"/>
	<path fill-rule="evenodd" clip-rule="evenodd" fill="#FD8A1C" d="M451.838,169.292c0.07-0.713,0.14-1.426,0.21-2.14
		c0.146-1.458,0.815-2.77,2.296-2.868c7.221-0.481,14.498-1.806,21.587,0.916c0.95,1.257,0.642,2.695,0.588,4.097
		c-0.752,0.904-1.613,1.988-2.778,1.925C466.422,170.818,458.926,172.307,451.838,169.292z"/>
	<path fill-rule="evenodd" clip-rule="evenodd" fill="#CB1F04" d="M651.776,242.288c5.986-0.358,11.973-0.718,17.959-1.077
		c1.476,2.747,1.298,5.499,0.028,8.256c-3.914-0.727-7.869-0.706-11.829-0.734c-2.1-0.015-4.344,0.319-6.055-1.438
		C651.845,245.625,651.811,243.957,651.776,242.288z"/>
	<path fill-rule="evenodd" clip-rule="evenodd" fill="#FDA339" d="M684.509,151.353c13.458,0.004,26.916,0.009,40.377,0.014
		c-4.479,4.211-10.379,3.274-15.541,3.383C701.009,154.923,692.495,154.571,684.509,151.353z"/>
	<path fill-rule="evenodd" clip-rule="evenodd" fill="#E74202" d="M443.739,216.289c7.305-0.332,14.61-0.665,21.916-0.998
		c0.356,1.644,0.712,3.287,1.069,4.931c-2.802,1.871-5.976,0.409-8.77,0.353c-4.387-0.089-8.828,0.008-13.233-0.284
		C443.97,219.06,443.555,217.748,443.739,216.289z"/>
	<path fill-rule="evenodd" clip-rule="evenodd" fill="#FC962B" d="M704.717,161.278c-14.384-0.01-28.769-0.021-43.153-0.03
		C675.95,157.66,690.336,155.896,704.717,161.278z"/>
	<path fill-rule="evenodd" clip-rule="evenodd" fill="#FE9F32" d="M449.447,153.374c7.715-0.021,15.429-0.043,23.144-0.064
		c1.271,1.023,1.888,2.364,1.934,3.982c-0.983,1.019-2.27,1.447-3.596,1.39c-6.684-0.291-13.403,1.166-20.06-0.393
		C450.396,156.65,449.921,155.012,449.447,153.374z"/>
	<path fill-rule="evenodd" clip-rule="evenodd" fill="#FE9123" d="M475.932,165.201c-6.403,0.03-12.806,0.1-19.208,0.065
		c-1.875-0.01-3.62,0.007-4.676,1.888c-0.114-1.955-0.229-3.908-0.343-5.862c5.716-3.125,11.884-0.998,17.827-1.474
		c2.243-0.18,4.696-0.087,5.99,2.437C475.658,163.237,475.794,164.219,475.932,165.201z"/>
	<path fill-rule="evenodd" clip-rule="evenodd" fill="#C71902" d="M651.88,247.294c4.572-0.001,9.145-0.024,13.717,0.008
		c1.723,0.013,3.781-0.487,4.166,2.163c-0.118,0.94-0.237,1.881-0.356,2.821c-6.958,2.406-13.911,2.647-20.86-0.036
		C649.657,250.599,650.769,248.947,651.88,247.294z"/>
	<path fill-rule="evenodd" clip-rule="evenodd" fill="#C31403" d="M648.546,252.25c6.953,0.012,13.908,0.024,20.861,0.036
		c-0.566,1.693-0.375,3.634-1.666,5.09c-5.911-2.346-12.076-0.469-18.088-1.103c-2.051-0.216-4.373,0.866-6.078-1.173
		C645.231,254.151,646.889,253.201,648.546,252.25z"/>
	<path fill-rule="evenodd" clip-rule="evenodd" fill="#FD972A" d="M475.521,162.254c-5.889-2.015-11.965-0.521-17.94-0.941
		c-1.95-0.138-3.917-0.021-5.877-0.021c-0.278-1.001-0.556-2.002-0.834-3.003c7.823-1.821,15.77-0.689,23.656-0.997
		C474.987,158.92,475.797,160.478,475.521,162.254z"/>
	<path fill-rule="evenodd" clip-rule="evenodd" fill="#FE8415" d="M451.838,169.292c5.962,0.574,12-0.486,17.935,0.933
		c2.301,0.55,4.536-0.32,6.746-0.928c0.028,1.331,0.057,2.663,0.085,3.994c-1.157,1.11-2.596,1.435-4.13,1.452
		c-5.822,0.067-11.645,0.057-17.468,0.004c-1.518-0.014-2.995-0.243-4.104-1.455C451.214,171.959,451.526,170.626,451.838,169.292z"
		/>
	<path fill-rule="evenodd" clip-rule="evenodd" fill="#FE7F10" d="M450.902,173.292c8.567,0,17.135-0.001,25.703-0.001
		c0.045,1.749,0.455,3.562-0.896,5.063c-0.44-2.75-2.616-2.029-4.296-2.04c-7.194-0.044-14.389,0.001-21.584,0.014
		C450.187,175.317,450.544,174.305,450.902,173.292z"/>
	<path fill-rule="evenodd" clip-rule="evenodd" fill="#EC4A02" d="M698.425,214.289c-16.575,0-33.15,0.009-49.725-0.007
		c-2.171-0.002-4.336-0.097-6.266,1.158c-0.904-0.423-1.809-0.846-2.712-1.269c1.204-1.286,2.785-0.864,4.232-0.865
		c18.278-0.01,36.558,0.012,54.837,0.024C698.669,213.65,698.547,213.969,698.425,214.289z"/>
	<path fill-rule="evenodd" clip-rule="evenodd" fill="#E23A02" d="M493.71,217.289c-0.267,0.644-0.533,1.287-0.799,1.93
		c0.035-4.597,0.068-9.192,0.104-13.788c1.039,1.144,0.519,2.564,0.691,3.861c0.001,1.333,0.002,2.666,0.003,3.998
		C493.71,214.623,493.71,215.956,493.71,217.289z"/>
	<path fill-rule="evenodd" clip-rule="evenodd" fill="#F75B02" d="M718.867,196.226c-4.126-0.001-8.253-0.002-12.38-0.003
		C710.613,194.932,714.74,194.937,718.867,196.226z"/>
	<path fill-rule="evenodd" clip-rule="evenodd" fill="#FA6202" d="M530.681,194.29c-6,1.646-12,1.646-18,0.001
		c1.81-1.8,4.103-0.991,6.144-0.935C522.782,193.465,526.729,193.957,530.681,194.29z"/>
	<path fill-rule="evenodd" clip-rule="evenodd" fill="#FA6202" d="M506.681,194.29c-2.333,1.575-4.667,1.575-7,0
		C502.014,192.998,504.347,192.998,506.681,194.29z"/>
</g>
</svg>
