<?xml version="1.0" encoding="utf-8"?>
<!-- Generator: Adobe Illustrator 16.0.0, SVG Export Plug-In . SVG Version: 6.00 Build 0)  -->
<!DOCTYPE svg PUBLIC "-//W3C//DTD SVG 1.1//EN" "http://www.w3.org/Graphics/SVG/1.1/DTD/svg11.dtd">
<svg version="1.1" id="Layer_1" xmlns="http://www.w3.org/2000/svg" xmlns:xlink="http://www.w3.org/1999/xlink" x="0px" y="0px"
	 width="1031.5px" height="305.984px" viewBox="0 203.6 1031.5 305.984" enable-background="new 0 203.6 1031.5 305.984"
	 xml:space="preserve">
<g>
	<path fill-rule="evenodd" clip-rule="evenodd" fill="#FEFEFE" d="M255.596,356.867c0,41.179-0.006,82.359,0.034,123.539
		c0.001,1.203-0.236,1.439-1.44,1.438c-82.476-0.036-164.952-0.036-247.428,0c-1.203,0.001-1.439-0.235-1.439-1.438
		c0.037-82.477,0.037-164.951,0-247.429c0-1.203,0.236-1.439,1.439-1.439c82.477,0.038,164.952,0.038,247.428,0
		c1.204,0,1.441,0.237,1.439,1.439C255.59,274.273,255.596,315.57,255.596,356.867z"/>
	<path fill-rule="evenodd" clip-rule="evenodd" fill="#934190" d="M88.229,408.31c-0.421-1.786-0.281-3.608-0.22-5.409
		c0.043-1.259-0.381-1.818-1.568-2.27c-14.051-5.332-27.907-11.128-41.3-17.97c-6.358-3.249-12.833-6.442-18.19-11.196
		c-8.236-7.307-15.544-15.479-19.339-26.09c-3.193-8.927-1.755-17.658,1.998-26.095c6.336-14.243,15.813-26.179,27.254-36.636
		c3.196-2.921,6.498-5.722,10.019-8.251c0.167-0.054,0.313-0.017,0.443,0.098c0.362,0.544,0.538,1.177,0.828,1.756
		c0.197,0.543,0.37,1.093,0.509,1.655c0.088,0.417,0.232,0.821,0.302,1.244c0.093,0.612,0.073,1.226,0.079,1.84
		c0.004,0.262-0.013,0.522-0.042,0.781c-0.059,0.508-0.229,0.99-0.335,1.487c-0.091,0.404-0.229,0.791-0.406,1.165
		c-0.3,0.65-0.711,1.238-1.072,1.854c-0.421,0.748-0.805,1.513-1.14,2.302c-0.154,0.366-0.267,0.745-0.371,1.129
		c-0.182,0.554-0.179,1.144-0.317,1.707c-0.395,1.126,0.29,2.2,0.173,3.311c0,0.512,0.057,1.016,0.188,1.513
		c0.137,0.661,0.218,1.334,0.396,1.989c0.102,0.482,0.219,0.963,0.346,1.44c0.141,0.696,0.329,1.379,0.603,2.038
		c0.235,0.641,0.584,1.22,0.981,1.77c0.292,0.515,0.655,0.973,1.091,1.374c0.405,0.444,0.881,0.797,1.402,1.094
		c0.909,0.623,1.788,1.297,2.847,1.663c1.344,0.548,2.68,1.113,4.123,1.364c2.814,0.809,5.705,1.298,8.534,2.037
		c1.528,0.443,3.102,0.746,4.559,1.419c1.09,0.459,2.045,1.164,3.094,1.702c1.032,0.52,1.953,1.218,2.934,1.825
		c1.339,0.954,2.758,1.767,4.246,2.467c2.795,1.315,4.293,0.995,6.324-1.388c0.267-0.312,0.533-0.623,0.825-0.912
		c0.679-0.637,1.321-1.31,1.977-1.972c1.254-1.233,2.936-1.357,4.516-1.751c1.062-0.171,2.122-0.175,3.182,0.01
		c2.648,0.365,5.292,0.751,7.854,1.551c1.761,0.448,3.461,1.092,5.193,1.632c1.689,0.66,3.376,1.321,5.121,1.831
		c2.67,0.78,4.972,0.315,6.796-1.893c0.475-0.535,0.88-1.114,1.133-1.79c0.143-0.364,0.302-0.722,0.441-1.088
		c0.217-0.593,0.334-1.214,0.487-1.825c0.051-0.316,0.12-0.631,0.198-0.941c0.247-0.86,0.265-1.719,0.005-2.578
		c-0.332-1.019-0.968-1.81-1.829-2.428c-2.456-1.807-5.354-2.245-8.253-2.48c-1.72-0.139-3.132,0.727-4.12,2.51
		c1.869-0.474,3.598-0.935,5.315-0.126c1.175,0.772,2.644,1.203,3.171,2.729c0.125,0.537,0.121,1.079,0.036,1.623
		c-0.183,0.809-0.605,1.481-1.202,2.05c-0.61,0.502-1.306,0.855-2.039,1.141c-0.609,0.176-1.197,0.06-1.779-0.131
		c-0.879-0.28-1.648-0.77-2.41-1.275c-0.709-0.627-1.521-1.132-2.222-1.771c-0.589-0.605-1.183-1.206-1.789-1.794
		c-0.468-0.494-0.948-0.973-1.503-1.372c-0.573-0.52-1.161-1.021-1.869-1.355c-1.215-0.6-2.487-1.028-3.814-1.294
		c-2.436-0.545-4.968-0.534-7.369-1.275c-0.921-0.326-1.445-1.08-1.97-1.834c-0.209-0.396-0.34-0.822-0.467-1.251
		c-0.131-0.52-0.148-1.045-0.071-1.574c0.099-0.508,0.25-1.002,0.368-1.508c0.212-0.673,0.511-1.307,0.882-1.908
		c0.399-0.53,0.858-0.994,1.447-1.319c1.831-0.704,3.713-0.439,5.59-0.299c1.643,0.441,3.344,0.622,4.986,1.067
		c1.748,0.423,3.499,0.834,5.206,1.405c0.613,0.276,1.225,0.558,1.863,0.777c0.515,0.227,1.018,0.485,1.528,0.725
		c0.677,0.4,1.439,0.612,2.154,0.928c0.354,0.166,0.704,0.339,1.056,0.51c0.683,0.382,1.403,0.69,2.088,1.068
		c0.753,0.563,1.591,0.979,2.442,1.367c0.682,0.385,1.402,0.7,2.09,1.074c0.568,0.411,1.168,0.769,1.811,1.054
		c0.824,0.462,1.705,0.821,2.49,1.354c0.641,0.459,1.369,0.759,2.075,1.099c0.703,0.396,1.448,0.712,2.155,1.103
		c1.044,0.733,2.187,1.275,3.375,1.728c5.779,2.677,11.641,2.768,17.58,0.585c0.769-0.284,1.579-0.429,2.355-0.69
		c3.758-0.872,7.525-0.625,11.292-0.055c0.862,0.129,1.712,0.343,2.687,0.356c0.076-0.799-0.553-1.135-0.898-1.613
		c-0.518-0.565-1.023-1.142-1.63-1.619c-0.715-0.512-1.371-1.111-2.196-1.461c-1.618-0.762-3.327-1.045-5.104-1.096
		c-5.21-0.151-10.385,0.261-15.545,0.937c-1.765,0.23-3.499,0.16-5.173-0.51c-0.746-0.374-1.442-0.826-2.042-1.414
		c-0.373-0.489-0.614-1.051-0.862-1.611c-0.063-0.169-0.098-0.344-0.114-0.522c-0.025-0.573,0.127-1.094,0.456-1.565
		c0.12-0.153,0.266-0.274,0.436-0.37c2.063-0.949,4.102-0.357,6.127,0.135c1.069,0.26,2.103,0.667,3.183,0.891
		c5.084,0.904,10.197,1.229,15.344,0.678c1.203-0.129,2.415-0.072,3.78-0.134c-0.63-0.47-1.204-0.578-1.737-0.782
		c-1.129-0.463-2.178-1.128-3.391-1.39c-0.782-0.089-1.486-0.424-2.207-0.707c-0.717-0.263-1.4-0.604-2.095-0.918
		c-1.375-0.683-2.843-1.098-4.312-1.511c-0.988-0.076-1.864-0.588-2.839-0.717c-1.673-0.276-3.347-0.547-5.015-0.845
		c-1.401-0.342-2.802-0.321-4.204-0.008c-1.482,0.167-2.959,0.361-4.414,0.709c-1.441,0.345-2.721-0.125-3.941-0.84
		c-0.61-0.345-1.117-0.831-1.682-1.24c-0.702-0.486-1.039-1.236-1.413-1.96c-0.147-0.292-0.279-0.588-0.382-0.899
		c-0.075-0.247-0.098-0.497-0.07-0.756c0.025-0.178,0.081-0.346,0.16-0.508c0.226-0.426,0.561-0.731,1.001-0.924
		c2.33-0.801,4.595-0.239,6.86,0.318c2.04,0.451,3.999,1.171,5.989,1.789c5.045,1.555,10.084,1.259,15.117-0.038
		c1.664-0.45,3.27-1.091,4.715-1.552c-1.99,0.056-4.208,0.19-6.421-0.076c-1.784-0.349-3.571-0.678-5.285-1.305
		c-0.811-0.457-1.695-0.758-2.527-1.169c-0.65-0.315-1.354-0.492-2.027-0.745c-0.505-0.223-1-0.47-1.484-0.736
		c-0.205-0.117-0.398-0.254-0.591-0.387c-0.654-0.459-1.464-0.604-2.129-1.046c-0.821-0.489-1.741-0.724-2.629-1.043
		c-4.882-1.401-9.748-0.92-14.609,0.108c-1.857,0.306-3.701,0.676-5.537,1.101c-2.166,0.206-4.333,0.196-6.499,0.021
		c-1.458-0.391-2.971-0.565-4.396-1.089c-0.974-0.368-1.937-0.77-2.914-1.13c-0.978-0.479-1.963-0.946-2.924-1.46
		c-0.548-0.397-1.153-0.727-1.582-1.275c-0.343-0.52-0.502-1.1-0.536-1.718c-0.021-0.339-0.012-0.679,0.019-1.018
		c0.042-0.417,0.163-0.812,0.342-1.19c0.136-0.29,0.29-0.571,0.447-0.852c0.242-0.416,0.521-0.808,0.82-1.184
		c0.405-0.436,0.873-0.789,1.405-1.059c0.908-0.411,1.91-0.458,2.854-0.739c0.854-0.161,1.706-0.156,2.559,0.005
		c1.946,0.337,3.933,0.459,5.837,1.035c0.756,0.268,1.522,0.512,2.287,0.757c1.039,0.406,2.11,0.719,3.168,1.063
		c0.942,0.369,1.925,0.625,2.851,1.037c0.911,0.389,1.826,0.764,2.758,1.102c0.528,0.234,1.043,0.498,1.582,0.71
		c1.008,0.431,2.067,0.709,3.108,1.045c0.824,0.336,1.692,0.507,2.556,0.702c3.766,0.996,7.588,1.204,11.446,0.791
		c0.745-0.08,1.498-0.254,2.154-0.674c0.725-0.338,1.507-0.514,2.252-0.795c0.951-0.262,1.838-0.697,2.76-1.036
		c0.513-0.197,1.006-0.431,1.461-0.746c0.605-0.382,1.292-0.614,1.872-1.044c0.673-0.351,1.316-0.749,1.896-1.242
		c0.348-0.308,0.775-0.523,1.15-1.082c-6.796,0.336-13.472,1.811-20.168,0.286c-0.93-0.028-1.796-0.302-2.631-0.688
		c-0.888-0.333-1.786-0.637-2.709-0.863c-0.836-0.367-1.657-0.768-2.501-1.122c-0.846-0.469-1.716-0.889-2.587-1.311
		c-0.7-0.368-1.409-0.721-2.112-1.084c-0.599-0.361-1.156-0.788-1.804-1.064c-0.554-0.287-1.116-0.549-1.734-0.669
		c-0.874-0.233-1.553-0.869-2.403-1.156c-0.927-0.375-1.844-0.778-2.805-1.064c-1.533-0.639-3.127-1.084-4.721-1.534
		c-2.054-0.423-4.015-1.176-6.047-1.689c-3.925-0.99-7.614-0.531-11.121,1.46c-0.924,0.5-1.849,1.004-2.688,1.643
		c-0.48,0.371-1.019,0.663-1.459,1.089c-0.439,0.395-0.849,0.826-1.355,1.138c-0.434,0.259-0.796,0.602-1.143,0.965
		c-0.257,0.258-0.513,0.516-0.754,0.79c-0.353,0.388-0.612,0.848-0.947,1.249c-0.249,0.286-0.52,0.548-0.782,0.82
		c-0.374,0.362-0.7,0.761-0.972,1.203c-0.255,0.359-0.515,0.713-0.739,1.092c-0.116,0.189-0.247,0.368-0.375,0.547
		c-0.333,0.487-0.657,0.978-0.949,1.49c-0.14,0.255-0.276,0.514-0.405,0.776c-0.125,0.263-0.251,0.526-0.364,0.796
		c-0.225,0.551-0.401,1.122-0.654,1.661c-0.219,0.485-0.375,0.999-0.684,1.439c-0.264,0.38-0.499,0.78-0.798,1.134
		c-0.487,0.512-0.979,1.018-1.499,1.497c-0.577,0.458-1.249,0.75-1.886,1.106c-0.903,0.43-1.865,0.698-2.806,1.028
		c-1.179,0.3-2.376,0.532-3.521,0.958c-0.415,0.154-0.799,0.367-1.161,0.62c-0.23,0.152-0.457,0.308-0.635,0.522
		c-0.166,0.224-0.32,0.456-0.472,0.689c-0.232,0.365-0.409,0.761-0.602,1.144c-0.235,0.437-0.475,0.873-0.539,1.376
		c-0.012,0.143-0.032,0.284-0.052,0.425c-0.027,0.214-0.074,0.426-0.139,0.631c-0.062,0.211-0.121,0.421-0.157,0.638
		c-0.033,0.308-0.023,0.616-0.026,0.928c0.005,0.172-0.006,0.339-0.023,0.509c-0.025,0.271-0.074,0.537-0.136,0.8
		c-0.242,1.645-0.058,3.296-0.104,4.942c-0.011,1.507,0.005,3.015-0.011,4.522c0.012,0.293-0.018,0.582-0.071,0.868
		c-0.116,0.547-0.294,1.076-0.496,1.599c-0.35,0.778-0.854,1.421-1.625,1.825c-1.266,0.527-2.525,0.493-3.778-0.049
		c-1.01-0.507-1.985-1.073-2.826-1.844c-0.519-0.485-0.815-1.112-1.104-1.744c-0.218-0.579-0.41-1.164-0.487-1.783
		c-0.046-0.447-0.052-0.896-0.042-1.346c-0.035-0.823,0.271-1.594,0.36-2.397c0.08-0.521,0.257-1.018,0.363-1.532
		c0.205-0.822,0.505-1.617,0.75-2.427c0.256-0.695,0.465-1.408,0.798-2.074c0.265-0.494,0.52-0.992,0.734-1.511
		c0.25-0.59,0.452-1.197,0.681-1.796c0.228-0.541,0.181-1.113,0.186-1.678c-0.007-0.419-0.002-0.837-0.004-1.256
		c0.005-0.501-0.05-0.994-0.183-1.479c-0.081-0.323-0.122-0.652-0.147-0.982c-0.01-0.563-0.173-1.098-0.296-1.64
		c-0.094-0.533-0.27-1.031-0.625-1.453c-0.655-0.841-1.509-1.385-2.514-1.71c-1.508-0.801-3.344-0.397-4.816-1.318
		c8.58-6.566,17.833-12.055,27.57-16.665c16.707-7.907,33.781-14.935,51.487-20.318c7.859-2.389,15.854-4.21,24.15-3.654
		c10.153,0.68,18.628,4.374,23.601,13.903c2.512,4.813,3.493,10.031,3.764,15.382c0.416,8.197-1.111,16.198-2.743,24.166
		c-3.971,19.383-9.159,38.417-16.495,56.824c-0.623,1.562-1.154,3.177-2.098,4.597c-0.685,0.213-1.389,0.162-2.091,0.161
		c-10.941-0.004-21.884-0.002-32.826,0c-2.755,0-2.799,0.034-3.4,2.662c-3.38,14.771-6.927,29.504-10.296,44.277
		c-0.708,3.103-0.971,3.309-4.11,3.315c-4.447,0.009-8.894,0.001-13.341,0.003c-3.188,0.001-3.211,0.03-2.818,3.129
		c0.245,1.924,0.14,3.855,0.106,5.784C88.785,407.425,88.726,407.967,88.229,408.31z"/>
	<path fill-rule="evenodd" clip-rule="evenodd" d="M88.229,408.31c0.172-2.92,0.172-5.84-0.207-8.741
		c-0.222-1.699,0.215-2.346,2.112-2.28c5.322,0.182,10.653,0.099,15.979,0.196c1.192,0.023,1.69-0.259,1.983-1.529
		c3.556-15.488,7.222-30.948,10.772-46.437c0.404-1.76,0.958-2.439,2.937-2.411c11.297,0.17,22.597,0.151,33.895,0.211
		c0.626,0.003,1.295-0.178,1.87,0.254c-2.881,15.625-5.761,31.249-8.645,46.871c-0.323,1.747,0.072,2.32,1.875,2.546
		c0.635,0.079,1.286,0.056,1.929,0.056c13.35,0,26.704-0.166,40.041,0.604c4.09,0.236,8.169,0.633,12.276,0.482
		c1.876-0.07,3.581-0.505,4.925-1.914c0.161-0.168,0.386-0.277,0.537-0.45c3.87-4.433,8.845-5.406,14.457-4.939
		c5.189,0.432,10.377,0.711,15.438,2.079c6.059,1.639,7.376,3.292,7.396,9.637c0.02,6.172-0.977,12.227-2.178,18.255
		c-2.23,11.207-3.823,22.49-3.709,33.943c0.058,5.856,1.264,11.627,1.605,17.465c0.393,6.721-0.402,6.612-6.009,8.137
		c-2.338,0.637-4.754,0.679-7.146,0.405c-3.003-0.344-5.51-1.645-7.605-3.91c-5.902-6.383-8.152-14.286-9.684-22.534
		c-2.243-12.077-3.849-24.243-5.115-36.454c-0.141-1.37-0.645-1.683-1.905-1.714c-14.164-0.359-28.33-0.663-42.487-1.217
		c-5.074-0.2-9.892,0.327-14.502,2.483c-4.355,2.038-6.997,5.34-7.62,10.172c-1.115,8.662-0.504,17.237,2.197,25.501
		c2.88,8.808,9.231,13.83,18.48,15.01c9.812,1.254,19.665,2.063,29.547,2.468c1.509,0.062,2.185,0.365,1.968,2.083
		c-0.257,2.025-0.233,4.092-0.226,6.14c0.003,0.924-0.144,1.308-1.208,1.309c-14.054,0.008-28.107-0.001-42.151-0.657
		c-4.732-0.222-9.451-0.662-14.176-0.976c-7.689-0.512-13.703-4.404-19.228-9.217c-6.647-5.794-9.887-13.303-10.407-22.061
		c-0.538-9.058-1.111-18.114-1.088-27.193c0.003-1.082-0.382-1.497-1.353-1.805c-4.671-1.479-9.308-3.073-13.989-4.524
		c-1.208-0.374-1.671-0.933-1.554-2.183C88.355,410.426,88.246,409.364,88.229,408.31z"/>
	<path fill-rule="evenodd" clip-rule="evenodd" d="M230.228,351.716c5.099,0.181,10.067,1.084,14.9,2.747
		c5.566,1.914,8.408,5.995,9.343,11.608c0.348,2.087-0.788,3.799-2.98,4.253c-9.499,1.973-18.696,1.337-27.356-3.429
		c-3.351-1.844-4.838-5.292-3.963-9.064c0.921-3.972,3.237-5.887,7.427-6.108C228.473,351.678,229.352,351.716,230.228,351.716z"/>
	<path fill-rule="evenodd" clip-rule="evenodd" fill="#FDAD45" d="M47.142,274.474c-0.091-0.013-0.178-0.04-0.26-0.081
		c-0.286-1.413,0.855-0.86,1.452-1.055c1.803,0.079,3.608,0.147,5.231,1.089C51.431,275.368,49.289,275.294,47.142,274.474z"/>
	<path fill-rule="evenodd" clip-rule="evenodd" fill="#FEFEFE" d="M49.183,320.591c27.762,0,55.453,0,83.287,0
		c-0.34,1.167-1.261,1.839-1.958,2.63c-5.665,6.426-11.524,12.685-18.964,17.099c-5.517,3.274-11.713,4.976-17.835,6.718
		c-1.533,0.437-2.028,1.086-2.181,2.526c-1.461,13.772,0.284,26.959,7.041,39.251c0.761,1.385,1.455,2.811,2.312,4.132
		c0.566,0.872,0.343,1.158-0.532,1.467c-2.095,0.737-4.178,1.516-6.233,2.355c-0.976,0.399-1.588,0.197-2.255-0.615
		c-4.665-5.67-7.161-12.299-8.455-19.406c-1.47-8.077-1.481-16.3-2.135-24.459c-0.122-1.516,0.236-3.271-0.417-4.495
		c-0.768-1.438-2.744-0.569-4.159-0.772c-8.988-1.289-15.863-5.612-20.392-13.564c-2.114-3.709-4.316-7.369-6.468-11.055
		C49.549,321.905,49.192,321.425,49.183,320.591z"/>
	<path fill-rule="evenodd" clip-rule="evenodd" fill="#FE8011" d="M64.282,284.258c0.14-0.526,0.326-1.025,0.743-1.404
		c0.743-0.415,1.549-0.471,2.379-0.464c7.941,0.069,15.884-0.105,23.821,0.054c3.72,0.074,7.461,0.119,11.163,0.1
		c7.294-0.039,14.595-0.144,21.892-0.128c5.259,0.011,10.516-0.152,15.782,0.132c1.951,0.106,3.917,0.168,5.873,0.338
		c0.893,0.205,1.723,0.563,2.503,1.04c-0.573,0.853-1.465,0.879-2.349,0.881c-12.812,0.034-25.623,0.026-38.434-0.027
		c-1.054-0.004-2.105,0.037-3.158,0.037c-12.578,0-25.156-0.013-37.735-0.011C65.907,284.807,64.982,285.007,64.282,284.258z"/>
	<path fill-rule="evenodd" clip-rule="evenodd" fill="#FC6802" d="M63.315,289.155c0.019-0.214,0.038-0.428,0.056-0.641
		c4.358-0.413,8.724-0.197,13.087-0.162c4.976,0.038,9.953,0.028,14.929,0.003c9.583-0.046,19.166,0.035,28.75,0.026
		c2.279-0.001,4.544-0.22,6.819-0.213c0.624,0.488,0.659,1.418,1.379,1.833c-0.173,0.931-0.917,0.953-1.615,0.968
		c-2.688,0.056-5.375,0.021-8.063-0.016c-3.202-0.042-6.407,0.081-9.61,0.083c-7.666,0.006-15.336,0.214-22.994-0.025
		c-3.211-0.1-6.412,0.342-9.611-0.024c-2.122-0.015-4.237-0.54-6.363-0.054c-0.632,0.143-1.266,0.158-1.902,0.035
		c-1.012-0.267-2.024-0.247-3.037,0.013c-0.667,0.08-1.34,0.182-1.884-0.368C63.155,290.122,63.096,289.633,63.315,289.155z"/>
	<path fill-rule="evenodd" clip-rule="evenodd" fill="#CC1F02" d="M57.28,309.276c-1.501-0.125-2.836-0.723-4.134-1.434
		c0.608-1.1,1.694-0.897,2.648-0.903c5.374-0.036,10.747-0.021,16.119-0.015c11.214,0.012,22.426-0.032,33.639-0.006
		c0.819,0.001,1.634,0.013,2.434,0.214c0.736,0.44,1.292,1.072,1.834,1.722c-0.539,1.04-1.548,0.935-2.459,0.946
		c-3.563,0.046-7.128,0.018-10.692,0.018c-10.81,0.002-21.62-0.014-32.43,0.013C61.898,309.837,59.583,309.66,57.28,309.276z"/>
	<path fill-rule="evenodd" clip-rule="evenodd" fill="#F75D02" d="M99.1,292.761c-1.936,0.078-3.9-0.333-5.799,0.346
		c-0.8,0.424-1.658,0.501-2.549,0.5c-8.358-0.03-16.716-0.017-25.074-0.011c-0.753,0-1.529,0.099-2.221-0.333
		c-0.495-0.553-0.215-1.213-0.25-1.828c1.042-0.752,2.294-0.401,3.367-0.374c3.838,0.098,7.67-0.087,11.503-0.062
		c4.822,0.031,9.647-0.078,14.465,0.013c6.062,0.113,12.123-0.032,18.184,0.06c5.592,0.086,11.188-0.079,16.782-0.154
		c0.761-0.01,1.495,0.298,2.253,0.098c1.777,1.223,3.71,1.098,5.639,0.548c0.917-0.261,1.817-0.279,2.74-0.268
		c1.451-0.237,2.901-0.239,4.352,0.001c1.764,0.019,3.454,0.527,5.181,0.788c-0.451,1.105-1.443,0.797-2.254,0.799
		c-10.889,0.023-21.778,0.03-32.666,0.008C108.202,292.883,103.649,293.06,99.1,292.761z"/>
	<path fill-rule="evenodd" clip-rule="evenodd" fill="#FE7B0C" d="M64.282,284.258c14.147-0.04,28.294-0.044,42.44-0.047
		c12.926-0.003,25.855-0.024,38.783,0.089c1.003,0.008,1.977-0.075,2.933-0.373c1.767,0.463,3.532,0.926,5.298,1.389
		c-1.84,0.999-3.875,0.706-5.792,0.635c-4.538-0.169-9.068,0.01-13.601,0.018c-2.334-0.439-4.664-0.988-7.049-0.32
		c-0.925,0.135-1.853,0.2-2.791,0.2c-19.666-0.007-39.33-0.007-58.995-0.009c-0.58,0-1.173,0.095-1.732-0.161
		C63.795,285.151,63.985,284.685,64.282,284.258z"/>
	<path fill-rule="evenodd" clip-rule="evenodd" fill="#C81902" d="M57.28,309.276c16.66-0.011,33.32-0.022,49.981-0.035
		c0.87,0,1.762,0.117,2.558-0.388c0.7,0.588,1.401,1.178,2.102,1.766c-0.696,0.968-1.737,0.868-2.716,0.809
		c-4.15-0.253-8.312,0.153-12.446-0.096c-4.384-0.263-8.753,0.084-13.134-0.066c-3.307-0.115-6.657,0.28-9.977,0.084
		c-2.508-0.147-4.998-0.144-7.497,0.021C63.149,310.865,60.167,310.272,57.28,309.276z"/>
	<path fill-rule="evenodd" clip-rule="evenodd" fill="#D12502" d="M107.985,307.132c-0.577,0.61-1.324,0.342-1.993,0.342
		c-16.819,0.015-33.638,0.011-50.458,0.015c-0.811,0-1.644-0.115-2.388,0.354c-1.138-0.28-2.063-0.918-2.881-1.732
		c0.641-0.683,1.498-0.593,2.301-0.59c11.515,0.027,23.029-0.017,34.544,0.01c5.495,0.015,10.99,0.013,16.486-0.027
		c0.998-0.006,1.981,0.06,2.948,0.312C107.228,306.032,107.607,306.582,107.985,307.132z"/>
	<path fill-rule="evenodd" clip-rule="evenodd" fill="#D52902" d="M106.545,305.815c-0.627,0.481-1.357,0.254-2.037,0.255
		c-18.081,0.023-36.162,0.03-54.242,0.04c-0.596-0.171-1.022-0.543-1.302-1.091c0.68-0.814,1.642-0.874,2.57-0.842
		c7.71,0.268,15.421-0.027,23.134,0.055c7.706,0.081,15.42-0.049,23.13-0.051c2.329-0.002,4.674-0.209,6.993,0.217
		C105.552,304.651,106.06,305.221,106.545,305.815z"/>
	<path fill-rule="evenodd" clip-rule="evenodd" fill="#C41502" d="M66.151,311.371c1.193-1.4,2.852-0.581,4.181-0.609
		c3.052-0.067,6.116,0.207,9.193,0.148c2.4-0.047,4.794-0.34,7.22-0.075c3.084,0.334,6.183-0.231,9.305-0.033
		c3.9,0.249,7.833-0.063,11.748,0.023c1.394,0.032,2.767,0.306,4.123-0.204c0.776,0.402,1.553,0.803,2.328,1.207
		c-0.549,1.107-1.641,1.026-2.57,1.014c-3.727-0.043-7.456,0.131-11.179-0.077c-0.924-0.051-1.837,0.454-2.752,0.008
		c-1.145,0-2.291-0.001-3.437-0.002c-4.368,0.3-8.743,0.162-13.112,0.079c-3.506-0.067-7.011,0.194-10.515-0.012
		C69.173,312.35,67.662,311.859,66.151,311.371z"/>
	<path fill-rule="evenodd" clip-rule="evenodd" fill="#F35502" d="M109.339,295.282c-1.748-0.499-3.496-0.997-5.245-1.495
		c0.671-0.823,1.621-0.872,2.56-0.872c13.804-0.025,27.609,0.015,41.414-0.032c0.805-0.002,1.617,0.361,2.414-0.049
		c1.459,0.45,2.947,0.818,4.303,1.552c-0.198,1.231-1.215,0.903-1.933,0.919c-4.27,0.089-8.541,0.038-12.812,0.039
		c-9.243,0.002-18.486-0.023-27.729,0.018C111.317,295.368,110.332,295.207,109.339,295.282z"/>
	<path fill-rule="evenodd" clip-rule="evenodd" fill="#D82E02" d="M104.792,304.398c-1.448,0.617-3.005,0.346-4.477,0.357
		c-4.198,0.034-8.389-0.272-12.596,0.174c-1.147,0.121-2.41-0.261-3.637-0.259c-6.739,0.011-13.481-0.127-20.214,0.062
		c-3.294,0.091-6.573-0.074-9.858-0.058c-1.689,0.01-3.387-0.105-5.046,0.345c-0.567-0.306-0.966-0.75-1.136-1.384
		c2.318-0.844,4.74-0.748,7.145-0.747c0.805,0.001,1.609,0.211,2.416-0.009c1.279,0.417,2.564,0.66,3.872,0.119
		c4.788,0.191,9.584,0.234,14.366,0.034c5.371-0.225,10.728,0.189,16.09,0.035c3.077-0.088,6.157,0.13,9.232-0.08
		C102.321,303.211,103.638,303.58,104.792,304.398z"/>
	<path fill-rule="evenodd" clip-rule="evenodd" fill="#DD3302" d="M100.95,302.988c-0.237,0.949-1.019,0.615-1.593,0.619
		c-4.184,0.025-8.373,0.143-12.551-0.015c-7.835-0.294-15.665,0.235-23.497,0.025c-0.731-0.021-1.562,0.233-2.048-0.62
		c0.453-0.507,0.905-1.015,1.357-1.522c0.624-0.198,1.264-0.182,1.908-0.18c7.237,0.015,14.475,0,21.713,0.008
		c2.32,0.002,4.646-0.111,6.949,0.293C95.776,302.06,98.362,302.523,100.95,302.988z"/>
	<path fill-rule="evenodd" clip-rule="evenodd" fill="#FA6202" d="M129.761,291.015c-0.218,0.381-0.478,0.604-0.986,0.52
		c-2.083-0.342-4.17-0.055-6.252-0.051c-2.051,0.003-4.117,0.225-6.149,0.059c-2.03-0.164-4.013,0.301-6.051,0.071
		c-2.141-0.245-4.321-0.093-6.489-0.226c-2.342-0.142-4.709,0.127-7.064,0.22c-0.35,0.013-0.718,0.123-1.046,0.051
		c-2.784-0.613-5.601-0.103-8.402-0.257c-3.398-0.187-6.854,0.436-10.225,0.101c-2.387-0.237-4.698,0.548-7.097-0.033
		c-1.125-0.272-2.503-0.049-3.732,0.063c-1.025,0.093-1.952,0.029-2.91-0.215c-0.213-0.233-0.214-0.468,0.002-0.703
		c0.698,0.001,1.396,0.001,2.095,0.001c0.82,0.081,1.641,0.081,2.46,0c0.703,0,1.406,0,2.109,0c2.108-0.146,4.217,0.283,6.326,0
		c8.584-0.371,17.171,0.207,25.758-0.124c3.393-0.131,6.802,0.199,10.193,0.055c4.819-0.205,9.631,0.139,14.447,0
		c0.638-0.019,1.125-0.162,1.585-0.546C128.81,290.339,129.285,290.676,129.761,291.015z"/>
	<path fill-rule="evenodd" clip-rule="evenodd" fill="#FED271" d="M83.013,266.331c0.206-0.235,0.412-0.47,0.618-0.705
		c0.797-0.421,1.65-0.497,2.542-0.496c12.194,0.017,24.388,0.028,36.583-0.007c0.828-0.002,1.61,0.278,2.43,0.243
		c0.879,0.352,1.763,0.693,2.511,1.299c-0.064,0.967-0.87,0.904-1.431,0.853c-4.71-0.415-9.432,0.406-14.147-0.187
		c-1.477-0.185-3.004,0.164-4.516,0.216c-3.97,0.137-7.941,0.056-11.9-0.055c-3.609-0.099-7.206,0.331-10.803,0.048
		C84.144,267.481,82.804,268.017,83.013,266.331z"/>
	<path fill-rule="evenodd" clip-rule="evenodd" fill="#FE8515" d="M145.936,282.887c-6.613,0.341-13.225-0.124-19.84-0.025
		c-6.826,0.104-13.661-0.153-20.48,0.091c-3.94,0.14-7.896,0.076-11.813,0.064c-5.694-0.016-11.404,0.037-17.105-0.114
		c-3.889-0.104-7.781-0.038-11.672-0.049c0.171-0.225,0.343-0.448,0.514-0.671c0.925-0.418,1.9-0.506,2.906-0.504
		c24.049,0.004,48.099,0.004,72.148,0.003c1.119,0,2.216,0.106,3.277,0.484C144.666,282.1,145.325,282.424,145.936,282.887z"/>
	<path fill-rule="evenodd" clip-rule="evenodd" fill="#DC3202" d="M126.641,303.954c-0.881-0.376-1.777-0.724-2.5-1.385
		c0.72-0.692,1.636-0.524,2.495-0.542c3.622-0.072,7.245,0.126,10.865-0.101c2.925,1.115,5.874,0.417,8.82,0.123
		c5.051-0.506,10.104-1.045,15.174-0.195c0.995,0.165,1.91,0.507,2.717,1.123c0.13,1.325-0.921,1.105-1.624,1.142
		c-2.277,0.114-4.559,0.032-6.838,0.038c-8.89,0.022-17.779-0.064-26.668,0.035C128.253,304.199,127.452,304.05,126.641,303.954z"/>
	<path fill-rule="evenodd" clip-rule="evenodd" fill="#FE8D1E" d="M110.152,280.039c2.309,0.006,4.618,0.011,6.926,0.018
		c7.234-0.54,14.476-0.013,21.713-0.151c0.396-0.006,0.818-0.092,1.185,0.163c0.671,0.432,1.582,0.378,2.138,1.046
		c-0.606,0.634-1.406,0.501-2.15,0.501c-23.546,0.013-47.092,0.013-70.638,0c-0.745,0-1.544,0.133-2.151-0.502
		c1.202-0.674,2.538-0.883,3.868-1.106C84.08,279.836,97.116,279.762,110.152,280.039z"/>
	<path fill-rule="evenodd" clip-rule="evenodd" fill="#D12402" d="M167.4,305.692c0.942,0.639,1.517,1.565,2.32,2.902
		c-5.318-0.878-10.299-1.747-15.333-0.748c-6.637,0.294-13.275,0.27-19.915,0.132c-0.188-0.004-0.334-0.064-0.489-0.139
		c-1.186-0.382-2.303-0.896-3.258-1.716c0.634-0.697,1.493-0.601,2.295-0.602c10.879-0.027,21.759,0.024,32.638-0.022
		C166.252,305.498,166.82,305.635,167.4,305.692z"/>
	<path fill-rule="evenodd" clip-rule="evenodd" fill="#F75B02" d="M150.482,292.835c-0.51,0.822-1.336,0.585-2.067,0.586
		c-9.886,0.011-19.771,0.006-29.657,0.006c-3.148,0-6.297,0.008-9.446-0.002c-1.749-0.006-3.498-0.066-5.216,0.362
		c-1.691-0.215-3.372-0.477-4.994-1.026c1.007-0.333,2.039-0.398,3.099-0.398c14.483,0.015,28.967,0.014,43.451,0
		c0.675-0.001,1.409,0.24,2.022-0.278C148.609,292.334,149.546,292.584,150.482,292.835z"/>
	<path fill-rule="evenodd" clip-rule="evenodd" fill="#E23A02" d="M93.189,301.596c-0.504,0.438-1.113,0.259-1.678,0.259
		c-9.032,0.011-18.063,0.012-27.095-0.002c-0.611,0-1.301,0.229-1.797-0.378c0.132-0.457,0.263-0.913,0.395-1.369
		c0.563-0.539,1.273-0.52,1.979-0.524c8.126-0.041,16.252-0.068,24.378-0.008c0.767,0.006,1.528-0.006,2.174,0.502
		C92.196,300.472,92.333,301.422,93.189,301.596z"/>
	<path fill-rule="evenodd" clip-rule="evenodd" fill="#F15202" d="M63.361,290.615c-0.001,0.235-0.001,0.469-0.002,0.703
		c0,0.586,0.001,1.172,0.001,1.757c0.577,0.7,1.38,0.524,2.123,0.525c8.073,0.012,16.146-0.004,24.22,0.014
		c0.856,0.002,1.776-0.193,2.493,0.524c-0.249,0.582-0.497,1.167-0.746,1.749c-0.562,0.524-1.27,0.554-1.973,0.556
		c-8.114,0.018-16.229,0.024-24.343-0.003c-0.467-0.001-0.934-0.037-1.379-0.201c-0.858-0.326-0.451-1.129-0.643-1.708
		c-0.026-1.796-0.354-3.603,0.202-5.377C63.33,289.642,63.345,290.128,63.361,290.615z"/>
	<path fill-rule="evenodd" clip-rule="evenodd" fill="#D52902" d="M167.4,305.692c-0.556,0.65-1.31,0.375-1.975,0.375
		c-11.566,0.032-23.132,0.042-34.698,0.056c-0.763-0.206-1.457-0.545-2.043-1.083c0.623-0.914,1.594-0.882,2.519-0.874
		c6.819,0.066,13.636,0.002,20.456,0.089c3.715,0.047,7.449,0.126,11.17-0.097c1.049-0.063,2.095,0.007,3.133,0.188
		C166.568,304.66,167.038,305.118,167.4,305.692z"/>
	<path fill-rule="evenodd" clip-rule="evenodd" fill="#FEBF5A" d="M135.394,269.237c7.165,1.455,14.28-0.104,21.694-0.451
		c-0.864,0.999-1.557,1.785-2.591,2.193c-0.937,0.374-1.908,0.489-2.917,0.488c-9.994-0.013-19.987-0.011-29.981-0.005
		c-1.292,0.001-2.549-0.211-3.795-0.519c-1.109-0.191-2.179-0.503-3.168-1.054c0.655-0.673,1.507-0.535,2.306-0.525
		c5.82,0.074,11.643-0.191,17.46,0.14C134.757,269.525,135.095,269.445,135.394,269.237z"/>
	<path fill-rule="evenodd" clip-rule="evenodd" fill="#EC4A02" d="M114.675,297.604c-0.746-0.258-1.526-0.445-2.124-1.014
		c0.472-0.535,1.129-0.599,1.766-0.62c4.417-0.146,8.841,0.01,13.258-0.016c4.766-0.027,9.558,0.04,14.334,0.082
		c4.183,0.035,8.377,0.145,12.559-0.164c1.002-0.075,1.974,0.206,2.967,0.251c0.521,0.025,1.045,0.212,1.506-0.188
		c1.145,0.252,2.213,0.674,3.151,1.392c-0.772,1.398-2.125,0.85-3.25,0.903c-4.657,0.223-9.326-0.28-13.983,0.174
		c-1.205,0.008-2.255-0.586-3.382-0.881c-2.006-0.526-4.003-0.842-6.042-0.215c-0.484,0.389-1.054,0.48-1.651,0.472
		C127.416,297.701,121.042,298,114.675,297.604z"/>
	<path fill-rule="evenodd" clip-rule="evenodd" fill="#FE6D02" d="M126.956,288.168c-1.031,1.252-2.51,0.59-3.671,0.609
		c-8.892,0.148-17.789,0.081-26.684,0.081c-6.758,0-13.515,0.001-20.273,0.001c-3.638,0-7.277-0.001-10.915,0.001
		c-0.702,0.001-1.41,0.058-2.042-0.346c0.008-0.119,0.016-0.238,0.024-0.357c0.83-0.723,1.967-0.75,2.837-0.626
		c2.283,0.324,4.545,0.003,6.813,0.078c3.438,0.113,6.89,0.07,10.336,0.039c3.318-0.033,6.641,0.012,9.955-0.054
		c6.348-0.127,12.694,0.115,19.042,0.004c3.667-0.063,7.347-0.089,11.018,0.079c0.999,0.045,1.985-0.047,2.958-0.274
		c0.101,0.004,0.2,0.008,0.3,0.015C126.755,287.667,126.855,287.917,126.956,288.168z"/>
	<path fill-rule="evenodd" clip-rule="evenodd" fill="#FBE990" d="M89.33,260.343c0.64-0.834,1.642-1.113,2.492-1.623
		c5.578-0.299,11.153-0.415,16.72,0.181c0.429,0.044,0.805-0.018,1.181-0.191c1.575,0.442,3.166,0.837,4.622,1.619
		c-0.055,1.194-1.046,1.224-1.776,1.177c-3.092-0.193-6.18,0.055-9.271-0.013c-2.262-0.049-4.535-0.337-6.794,0
		c-2.105,0.313-4.183-0.221-6.281-0.138C89.681,261.377,89.202,261.056,89.33,260.343z"/>
	<path fill-rule="evenodd" clip-rule="evenodd" fill="#FECC6B" d="M83.013,266.331c0.153,0.972,0.923,0.75,1.517,0.727
		c2.795-0.115,5.628-0.223,8.385-0.164c2.698,0.059,5.427-0.013,8.137,0.105c3.476,0.151,6.982,0.295,10.469-0.229
		c0.885-0.133,1.836,0.262,2.761,0.285c3.871,0.1,7.742-0.401,11.618-0.005c0.6,0.061,1.307,0.241,1.796-0.384
		c0.896,0.185,1.704,0.56,2.417,1.136c-0.09,0.775-0.711,0.716-1.19,0.644c-2.097-0.319-4.165-0.059-6.255,0.112
		c-2.541,0.208-5.082-0.236-7.645-0.208c-2.83,0.03-5.691,0.15-8.523-0.202c-0.882,0.002-1.765,0.003-2.646,0.004
		c-2.245,0.239-4.479,0.304-6.749,0.287c-2.409-0.017-4.837-0.26-7.286-0.021c-2.39,0.233-4.851-0.084-7.283-0.117
		c-0.294-0.005-0.5-0.274-0.622-0.557C82.098,267.131,82.501,266.688,83.013,266.331z"/>
	<path fill-rule="evenodd" clip-rule="evenodd" fill="#FE7608" d="M63.778,285.678c0.628-0.429,1.342-0.333,2.039-0.333
		c19.878-0.001,39.757-0.003,59.635,0.01c0.619,0,1.296-0.22,1.843,0.293c-0.207,0.28-0.414,0.561-0.621,0.841
		c-1.052,0.109-2.107,0.052-3.16,0.052c-18.971,0.003-37.94,0.008-56.911-0.008c-0.969-0.001-2.01,0.251-2.867-0.486
		C63.75,285.924,63.764,285.801,63.778,285.678z"/>
	<path fill-rule="evenodd" clip-rule="evenodd" fill="#FE7205" d="M126.613,286.75c0.014,0.222,0.028,0.444,0.042,0.667
		l-0.082,0.059c-0.829,0.383-1.715,0.343-2.591,0.324c-7.229-0.154-14.461-0.034-21.692-0.099
		c-5.058-0.045-10.127,0.039-15.19,0.059c-5.247,0.02-10.495,0.08-15.745-0.049c-2.075-0.051-4.191-0.144-6.284,0.069
		c-0.643,0.064-1.314,0.065-1.666-0.666c0.048-0.137,0.097-0.274,0.146-0.412c0.644-0.385,1.36-0.299,2.056-0.299
		c19.659-0.002,39.318-0.005,58.977,0.003C125.272,286.406,126,286.267,126.613,286.75z"/>
	<path fill-rule="evenodd" clip-rule="evenodd" fill="#FE8919" d="M143.871,282.166c-26.111,0.006-52.222,0.011-78.333,0.017
		c0.06-0.264,0.253-0.358,0.493-0.397c1.335-0.669,2.746-0.288,4.132-0.313c4.722-0.084,9.449-0.263,14.165-0.127
		c7.336,0.214,14.669-0.079,22.006,0.035c6.222,0.095,12.458-0.093,18.685-0.046c5.809,0.043,11.618-0.015,17.425,0.11
		C143.005,281.517,143.501,281.718,143.871,282.166z"/>
	<path fill-rule="evenodd" clip-rule="evenodd" fill="#FE7306" d="M126.613,286.75c-20.201,0-40.402,0-60.604-0.002
		c-0.819,0-1.639-0.031-2.459-0.047c0.063-0.219,0.124-0.435,0.186-0.654c20.269,0,40.539-0.003,60.808,0.013
		c0.718,0.002,1.541-0.304,2.128,0.429C126.686,286.585,126.667,286.671,126.613,286.75z"/>
	<path fill-rule="evenodd" clip-rule="evenodd" fill="#D82E02" d="M165.962,304.347c-2.134,0.644-4.334,0.3-6.5,0.414
		c-2.3,0.12-4.624-0.291-6.91,0.141c-1.143,0.214-2.162-0.277-3.277-0.262c-5.885,0.075-11.772,0.046-17.659,0.024
		c-1.003-0.004-1.977,0.073-2.931,0.376c-0.764-0.209-1.469-0.524-2.043-1.086c0.69-0.427,1.46-0.333,2.214-0.333
		c11.143-0.001,22.287,0.008,33.43-0.022c0.656-0.002,1.582,0.479,1.927-0.623C164.888,303.316,165.463,303.782,165.962,304.347z"/>
	<path fill-rule="evenodd" clip-rule="evenodd" fill="#EA4602" d="M91.117,297.294c0.021,0.58,0.041,1.162,0.062,1.742
		c-1.726,0.833-3.55,0.203-5.319,0.293c-4.008,0.206-8.021-0.204-12.055,0.039c-2.938,0.176-5.921,0.076-8.884,0.097
		c-0.728,0.005-1.412-0.106-1.723-0.911c0.031-0.516-0.203-1.088,0.331-1.492c0.76-0.399,1.586-0.333,2.397-0.333
		c7.513-0.008,15.025-0.014,22.539,0.004C89.373,296.736,90.349,296.561,91.117,297.294z"/>
	<path fill-rule="evenodd" clip-rule="evenodd" fill="#FE9729" d="M73.828,278.993c0.592-0.35,1.184-0.698,1.776-1.046
		c0.787-0.448,1.643-0.561,2.536-0.559c7.251,0.002,14.501,0.007,21.751-0.003c1.127-0.002,2.196,0.267,3.271,0.544
		c1,0.159,1.884,0.616,2.769,1.067c-0.767,0.934-1.845,0.901-2.891,0.892c-7.387-0.081-14.775,0.083-22.164-0.062
		c-1.565-0.03-3.144,0.06-4.715,0.06C75.277,279.884,74.391,279.848,73.828,278.993z"/>
	<path fill-rule="evenodd" clip-rule="evenodd" fill="#FE9223" d="M73.828,278.993c0.951,0.302,1.92,0.391,2.922,0.388
		c7.993-0.021,15.986-0.012,23.979-0.011c1.743,0,3.493,0.092,5.202-0.375c1.407,0.348,2.814,0.696,4.222,1.043
		c-0.683,0.435-1.446,0.388-2.208,0.388c-5.302-0.004-10.603-0.002-15.905-0.002c-6.344,0-12.688,0.008-19.032-0.013
		c-0.665-0.002-1.424,0.277-1.964-0.404C71.972,279.668,72.9,279.33,73.828,278.993z"/>
	<path fill-rule="evenodd" clip-rule="evenodd" fill="#F05002" d="M109.339,295.282c0.579-0.753,1.406-0.433,2.121-0.434
		c13.734-0.02,27.468-0.01,41.201-0.028c0.716-0.001,1.542,0.313,2.124-0.433c0.679,0.279,1.357,0.559,2.035,0.837
		c-0.023,0.785-0.669,0.733-1.14,0.756c-3.012,0.15-6.035,0.177-9.042,0.101c-1.792-0.045-3.594-0.004-5.375,0.006
		c-2.02,0.012-4.042-0.11-6.071-0.036c-4.049,0.145-8.112,0.096-12.168,0.059c-3.477-0.03-6.953-0.235-10.428,0.063
		c-0.532,0.046-1.042-0.091-1.546-0.249C110.401,295.916,109.852,295.65,109.339,295.282z"/>
	<path fill-rule="evenodd" clip-rule="evenodd" fill="#FE6D02" d="M63.405,287.114c0.745,0.491,1.584,0.334,2.394,0.334
		c20.258,0.014,40.517,0.021,60.775,0.028c-0.546,0.672-1.303,0.685-2.076,0.683c-7.005-0.026-14.01-0.06-21.015-0.062
		c-5.508-0.001-11.02,0.165-16.523,0.022c-5.203-0.136-10.407,0.06-15.615-0.114c-2.603-0.089-5.312-0.311-7.95,0.151
		C63.398,287.809,63.401,287.462,63.405,287.114z"/>
	<path fill-rule="evenodd" clip-rule="evenodd" fill="#FDD677" d="M125.186,265.366c-0.319,0.347-0.741,0.297-1.147,0.297
		c-13.47-0.012-26.939-0.024-40.408-0.035c0.329-0.5,0.605-1.045,1.177-1.327c1.833-0.541,3.697-0.037,5.536-0.057
		c6.34-0.064,12.684-0.217,19.027-0.119c4.572,0.072,9.144,0.274,13.718,0.154C123.787,264.642,124.487,265.005,125.186,265.366z"/>
	<path fill-rule="evenodd" clip-rule="evenodd" fill="#FE7407" d="M134.344,285.968c1.455-1.087,3.165-0.516,4.716-0.555
		c3.142-0.078,6.293-0.123,9.456,0.11c1.671,0.124,3.479-0.079,5.221-0.206c2.535-0.002,5.069-0.002,7.604-0.002
		c-1.734,1.199-3.608,1.874-5.564,2.346c-0.594-0.3-1.271-0.37-1.884-0.337c-4.372,0.24-8.745-0.194-13.115,0.039
		c-0.3,0.016-0.559,0.158-0.811,0.311C138.093,287.106,136.218,286.537,134.344,285.968z"/>
	<path fill-rule="evenodd" clip-rule="evenodd" fill="#CC1F03" d="M133.985,307.839c0.895-0.263,1.8-0.37,2.741-0.365
		c5.154,0.025,10.307,0.013,15.462,0.011c0.754,0,1.518-0.07,2.201,0.361C147.586,310.553,140.786,311.469,133.985,307.839z"/>
	<path fill-rule="evenodd" clip-rule="evenodd" fill="#ED4B02" d="M91.117,297.294c-9.253,0-18.506,0-27.759,0
		c-0.271-0.469-0.27-0.937-0.002-1.406c9.365,0,18.73-0.001,28.094-0.001C91.485,296.391,91.381,296.863,91.117,297.294z"/>
	<path fill-rule="evenodd" clip-rule="evenodd" fill="#F04F02" d="M111.05,295.924c4.755-0.423,9.508-0.261,14.273-0.11
		c3.81,0.121,7.632-0.217,11.45-0.253c3.078-0.028,6.158,0.117,9.236,0.138c3.123,0.021,6.245-0.018,9.368-0.023
		c0.53-0.001,1.039-0.055,1.442-0.451c0.709,0.234,1.329,0.728,2.122,0.712c-0.269,1.055-1.156,0.69-1.743,0.624
		c-3.94-0.439-7.905-0.196-11.828-0.102c-4.903,0.117-9.808,0.029-14.705,0.044c-4.486,0.015-8.983,0.271-13.487-0.055
		c-1.475-0.106-3.101-0.27-4.628,0.142C111.983,296.521,111.48,296.304,111.05,295.924z"/>
	<path fill-rule="evenodd" clip-rule="evenodd" fill="#FCDD81" d="M119.572,262.523c0.659,0.085,1.184,0.463,1.729,0.794
		c-0.225,1.301-1.298,1.021-2.089,1.01c-5.542-0.07-11.084-0.049-16.627-0.078c-5.188-0.026-10.376,0.163-15.563-0.009
		c-0.562-0.02-1.368,0.301-1.534-0.688c0.22-0.481,0.644-0.735,1.087-0.967c3.716-0.532,7.452-0.191,11.179-0.231
		c6.477-0.069,12.957,0.028,19.434-0.063C118.01,262.278,118.743,262.859,119.572,262.523z"/>
	<path fill-rule="evenodd" clip-rule="evenodd" fill="#C01002" d="M97.748,312.773c4.588-0.721,9.203-0.421,13.811-0.366
		c0.943,0.012,1.821-0.261,2.69-0.58c0.593,0.053,1.186,0.107,1.78,0.162c2.241-0.176,4.486-0.172,6.729-0.094
		c0.669,0.023,1.585-0.199,1.764,0.893c-0.138,0.342-0.276,0.684-0.414,1.025c-0.671,0.615-1.513,0.552-2.321,0.542
		c-5.128-0.065-10.258,0.18-15.384-0.128c-0.299-0.02-0.573,0.083-0.85,0.171C102.952,313.856,100.35,313.315,97.748,312.773z"/>
	<path fill-rule="evenodd" clip-rule="evenodd" fill="#FEBA53" d="M117.803,270.943c12.23,0.011,24.461,0.023,36.693,0.036
		c-0.468,0.545-1.063,0.881-1.758,1.054c-0.945,0.335-1.917,0.471-2.922,0.469c-8.65-0.02-17.3-0.036-25.95,0.008
		c-1.124,0.006-2.189-0.276-3.267-0.507C119.606,271.811,118.668,271.474,117.803,270.943z"/>
	<path fill-rule="evenodd" clip-rule="evenodd" fill="#FE891A" d="M142.444,281.444c-0.191,0.119-0.425,0.381-0.566,0.337
		c-2.278-0.699-4.571,0.276-6.903-0.17c-1.983-0.378-4.128-0.109-6.152,0.032c-1.368,0.096-2.63-0.293-3.955-0.178
		c-3.692,0.322-7.413,0.189-11.098,0.186c-4.82-0.006-9.657,0.032-14.485-0.133c-2.94-0.101-5.907,0.414-8.836,0.238
		c-3.067-0.183-6.188-0.635-9.179-0.17c-3.155,0.492-6.237-0.521-9.37,0.185c-1.888,0.425-3.905-0.281-5.868,0.015
		c0.291-0.377,0.639-0.66,1.144-0.672c24.98,0,49.959,0.001,74.939,0.001C142.226,281.223,142.334,281.333,142.444,281.444z"/>
	<path fill-rule="evenodd" clip-rule="evenodd" fill="#FE9D30" d="M103.161,277.928c-9.186,0.006-18.371,0.013-27.558,0.019
		c0.482-0.463,0.963-0.927,1.445-1.39c0.711-0.496,1.518-0.529,2.349-0.528c6.074,0.009,12.148,0.011,18.224-0.002
		c0.95-0.002,1.859,0.135,2.736,0.493C101.365,276.844,102.29,277.332,103.161,277.928z"/>
	<path fill-rule="evenodd" clip-rule="evenodd" fill="#E64002" d="M63.357,298.699c2.199,0.605,4.452,0.209,6.666,0.233
		c3.46,0.035,6.925-0.32,10.395-0.205c2.327,0.077,4.649,0.147,6.981,0.033c1.251-0.062,2.519,0.175,3.779,0.276
		c0.122,0.348,0.243,0.695,0.366,1.041c-9.51,0.01-19.02,0.02-28.53,0.029c0.021-0.244,0.042-0.485,0.063-0.728
		C63.23,299.176,63.093,298.854,63.357,298.699z"/>
	<path fill-rule="evenodd" clip-rule="evenodd" fill="#B80702" d="M88.327,316.318c-0.395,0.501-0.764,1.026-1.189,1.5
		c-1.686,1.885-3.44,2.294-5.809,1.292c-1.774-0.751-3.442-1.705-4.948-2.923c0.1-1.055,0.945-1.093,1.677-1.119
		c2.847-0.094,5.697-0.098,8.543,0.002C87.378,315.099,88.316,315.126,88.327,316.318z"/>
	<path fill-rule="evenodd" clip-rule="evenodd" fill="#FAEE97" d="M109.722,258.71c-1.264,1.372-2.939,0.529-4.249,0.438
		c-3.277-0.229-6.54,0.013-9.8-0.146c-1.28-0.063-2.63,0.563-3.853-0.28c3.649-2.292,7.546-2.908,11.711-1.736
		C105.594,257.564,107.659,258.135,109.722,258.71z"/>
	<path fill-rule="evenodd" clip-rule="evenodd" fill="#C01102" d="M70.685,312.837c1.666-0.978,3.521-0.434,5.255-0.5
		c4.385-0.164,8.782,0.033,13.176,0.065c1.741,0.012,3.485-0.069,5.195,0.368c-1.466,0.463-3.027,0.694-4.26,1.73
		c-5.495-0.281-10.992-0.176-16.489-0.073C72.603,313.897,71.644,313.368,70.685,312.837z"/>
	<path fill-rule="evenodd" clip-rule="evenodd" fill="#F55902" d="M92.195,294.139c-9.045-0.002-18.091,0-27.136-0.019
		c-0.737,0-1.784,0.355-1.7-1.045c9.98,0.01,19.96,0.021,29.94,0.032C92.932,293.451,92.564,293.795,92.195,294.139z"/>
	<path fill-rule="evenodd" clip-rule="evenodd" fill="#FCE185" d="M119.572,262.523c-0.413,0.471-0.972,0.322-1.48,0.323
		c-10.061,0.006-20.122,0.006-30.182,0.002c-0.458-0.001-0.946,0.105-1.334-0.264c0.456-0.384,0.911-0.769,1.367-1.152
		c4.951,0.014,9.903,0.182,14.849,0.09c4.778-0.086,9.555,0.037,14.332-0.081C118.06,261.529,118.724,262.234,119.572,262.523z"/>
	<path fill-rule="evenodd" clip-rule="evenodd" fill="#FCD97C" d="M85.488,263.552c0.518,0.577,1.207,0.341,1.821,0.343
		c10.641,0.013,21.283,0.013,31.923,0.003c0.73-0.002,1.56,0.246,2.07-0.581c0.596,0.322,1.191,0.642,1.787,0.962
		c-1.769,1.06-3.711,0.607-5.56,0.488c-1.69-0.111-3.37-0.33-5.022,0.067c-0.761,0.183-1.37-0.203-2.049-0.203
		c-5.368-0.02-10.74-0.138-16.101,0.033c-3.046,0.096-6.075,0.039-9.109-0.102c-0.15-0.006-0.293-0.171-0.439-0.262
		C85.035,264.051,85.262,263.803,85.488,263.552z"/>
	<path fill-rule="evenodd" clip-rule="evenodd" fill="#BD0C02" d="M105.554,314.398c0.46-0.75,1.21-0.581,1.895-0.582
		c5.554-0.006,11.107-0.003,16.66-0.003c-0.056,0.739-0.506,1.261-0.978,1.771c-0.785,0.469-1.648,0.551-2.538,0.542
		c-3.273-0.032-6.548,0.103-9.817-0.167C109.034,315.439,107.293,314.918,105.554,314.398z"/>
	<path fill-rule="evenodd" clip-rule="evenodd" fill="#FEA93E" d="M77.756,275.504c0.238-0.468,0.475-0.936,0.711-1.403
		c0.466-0.417,1.029-0.52,1.63-0.521c5.73-0.009,11.46-0.007,17.19,0c0.354,0.001,0.7,0.042,1.013,0.229
		c0.208,0.557,0.416,1.113,0.624,1.671c-0.587,0.645-1.374,0.542-2.119,0.543c-5.64,0.01-11.279,0.01-16.918,0.001
		C79.141,276.022,78.357,276.125,77.756,275.504z"/>
	<path fill-rule="evenodd" clip-rule="evenodd" fill="#E84503" d="M144.86,298.405c2.023-1.019,4.238-0.742,6.344-0.7
		c3.377,0.067,6.747,0.164,10.119-0.074c0.263-0.019,0.515-0.199,0.771-0.303c1.269,0.042,2.248,0.746,3.72,1.584
		C158.496,299.277,151.659,299.993,144.86,298.405z"/>
	<path fill-rule="evenodd" clip-rule="evenodd" fill="#BC0C02" d="M73.563,314.428c0.343-0.614,0.924-0.619,1.524-0.618
		c4.497,0.006,8.994,0.006,13.491,0c0.612-0.002,1.176,0.049,1.474,0.691c-0.576,0.604-1.15,1.211-1.726,1.818
		c-0.276-0.629-0.799-0.755-1.424-0.752c-3.064,0.011-6.13,0.009-9.195,0c-0.553-0.001-1.037,0.092-1.328,0.622
		C75.44,315.603,74.501,315.014,73.563,314.428z"/>
	<path fill-rule="evenodd" clip-rule="evenodd" fill="#D82F04" d="M115.944,305.071c-1.967-0.687-3.849-0.125-5.764,0.553
		c0.413-2.152,1.792-3.601,3.934-3.62c3.333-0.032,6.598,0.498,9.346,2.667c-0.131,0.195-0.303,0.411-0.526,0.406
		C120.603,305.019,118.272,305.66,115.944,305.071z"/>
	<path fill-rule="evenodd" clip-rule="evenodd" fill="#FE9123" d="M139.977,280.068c-0.899,0.265-1.809,0.374-2.755,0.368
		c-4.596-0.027-9.202,0.147-13.788-0.084c-2.114-0.107-4.279,0.538-6.355-0.296c1.714-0.569,3.47-0.927,5.272-1.054
		c5.056-0.6,10.112-0.89,15.167,0.011C138.415,279.186,139.274,279.444,139.977,280.068z"/>
	<path fill-rule="evenodd" clip-rule="evenodd" fill="#FBE48A" d="M117.123,261.442c-0.882,1.124-2.093,0.44-3.138,0.518
		c-3.505,0.264-7.031-0.582-10.529,0.133c-0.805,0.165-1.502-0.377-2.227-0.258c-3.954,0.651-7.929-0.453-11.885,0.178
		c-0.433,0.068-1.048-0.11-1.401-0.581c0.318-0.548,0.875-0.79,1.387-1.089c0.189,0.387,0.436,0.715,0.916,0.702
		c4.014-0.12,8.058-0.305,12.04-0.135c3.227,0.137,6.461-0.391,9.675,0.163c0.858,0.149,1.773,0.088,2.384-0.744
		C115.337,260.533,116.264,260.9,117.123,261.442z"/>
	<path fill-rule="evenodd" clip-rule="evenodd" fill="#FEB149" d="M124.857,273.745c-0.563-0.084-1.075-0.285-1.514-0.654
		c0.469-0.796,1.259-0.743,2.016-0.744c7.759-0.008,15.519-0.008,23.277,0c0.813,0.002,1.656-0.044,2.243,0.701
		c-0.393,0.396-0.875,0.612-1.418,0.701c-1.297,0.367-2.612,0.515-3.968,0.508c-5.554-0.032-11.11-0.023-16.666-0.005
		C127.476,274.256,126.157,274.1,124.857,273.745z"/>
	<path fill-rule="evenodd" clip-rule="evenodd" fill="#FEB64E" d="M98.778,271.638c-0.117,0.357-0.234,0.715-0.352,1.071
		c-0.33,0.675-0.947,0.833-1.611,0.838c-5.365,0.029-10.729,0.052-16.093-0.018c-0.751-0.01-1.572-0.146-1.578-1.221
		c0.002-0.279,0.072-0.527,0.328-0.687c1.524-0.877,3.193-0.464,4.787-0.451c4.128,0.033,8.254-0.096,12.38-0.02
		C97.377,271.165,98.172,271.009,98.778,271.638z"/>
	<path fill-rule="evenodd" clip-rule="evenodd" fill="#FD6E04" d="M139.967,287.675c0.133-0.846,0.755-1.016,1.435-0.91
		c2.751,0.434,5.531-0.433,8.298,0.29c1.218,0.318,2.496-0.489,3.8-0.313c0.849,0.114,1.746,0.045,2.276,0.92
		C150.508,289.168,145.239,289.576,139.967,287.675z"/>
	<path fill-rule="evenodd" clip-rule="evenodd" fill="#E94502" d="M117.711,299.094c-0.764-0.21-1.465-0.544-2.084-1.043
		c0.285-0.583,0.816-0.576,1.35-0.576c5.947-0.002,11.894,0.01,17.842,0.006c0.187,0,0.333,0.085,0.488,0.164
		c-0.091,0.47-0.181,0.938-0.271,1.407c-0.462,0.439-1.043,0.487-1.633,0.485c-4.493-0.017-8.986,0.004-13.479,0.041
		C119.155,299.583,118.425,299.366,117.711,299.094z"/>
	<path fill-rule="evenodd" clip-rule="evenodd" fill="#FEC05B" d="M79.825,270.923c0.081-0.76,0.632-1.234,1.079-1.772
		c2.656,0.083,5.31-0.298,7.976,0.14c1.297,0.214,2.652,0.139,3.99-0.077c2.371-0.381,4.7-0.067,6.978,0.664
		c-0.235,0.353-0.47,0.703-0.705,1.056c-0.509,0.372-1.101,0.349-1.686,0.349c-5.381,0.001-10.764,0.017-16.146-0.004
		C80.795,271.276,80.245,271.361,79.825,270.923z"/>
	<path fill-rule="evenodd" clip-rule="evenodd" fill="#FE7105" d="M56.31,286.728c-0.075,0.552-0.323,1.019-0.693,1.43
		c-0.332,0.542-0.84,0.814-1.45,0.841c-2.445,0.106-4.89,0.119-7.333-0.008c-0.413-0.021-0.8-0.157-1.086-0.488
		c0.153-0.937,0.699-1.682,1.198-2.45c0.698-0.532,1.517-0.565,2.344-0.559c1.873,0.011,3.75-0.089,5.618,0.06
		C55.553,285.603,56.601,285.444,56.31,286.728z"/>
	<path fill-rule="evenodd" clip-rule="evenodd" fill="#FEA337" d="M77.756,275.504c7.056-0.008,14.112-0.017,21.168-0.024
		c0.478,0.347,0.955,0.693,1.433,1.04c-7.769,0.013-15.538,0.024-23.308,0.037C77.285,276.205,77.521,275.854,77.756,275.504z"/>
	<path fill-rule="evenodd" clip-rule="evenodd" fill="#FDC460" d="M135.394,269.237c-0.282,1.028-1.134,0.622-1.747,0.625
		c-6.337,0.032-12.675,0.024-19.013,0.027c-0.754-0.059-1.466-0.262-2.126-0.637c-0.01-0.749,0.557-0.851,1.074-0.836
		c2.145,0.058,4.284-0.159,6.434-0.006c3.312,0.236,6.627-0.259,9.954-0.025c0.968,0.068,1.946,0.345,2.933,0.185
		C133.748,268.736,134.48,269.322,135.394,269.237z"/>
	<path fill-rule="evenodd" clip-rule="evenodd" fill="#FEB54D" d="M150.879,273.048c-2.995-0.659-6.032-0.308-9.049-0.34
		c-5.131-0.056-10.263-0.002-15.394-0.027c-1.059-0.005-2.089,0.062-3.093,0.41c-0.991-0.17-1.888-0.577-2.744-1.088
		c10.712,0.009,21.426,0.019,32.139,0.03C152.295,272.692,151.466,272.65,150.879,273.048z"/>
	<path fill-rule="evenodd" clip-rule="evenodd" fill="#FEC865" d="M132.903,268.57c-0.569,0.446-1.234,0.244-1.856,0.247
		c-5.529,0.017-11.06,0-16.589,0.021c-0.662,0.003-1.419-0.272-1.95,0.414c-2.003-0.368-4.005-0.735-6.008-1.103
		c4.136-0.54,8.341-0.618,12.43-0.207c3.561,0.357,7.083-0.922,10.584,0.141c0.157,0.048,0.397-0.181,0.598-0.282
		C131.129,267.741,131.973,268.311,132.903,268.57z"/>
	<path fill-rule="evenodd" clip-rule="evenodd" fill="#B90803" d="M110.775,315.959c0.429-0.565,1.052-0.38,1.605-0.382
		c3.584-0.009,7.167,0.002,10.75,0.007c-1.779,2.668-4.342,3.082-7.185,2.333C114.167,317.448,112.413,316.837,110.775,315.959z"/>
	<path fill-rule="evenodd" clip-rule="evenodd" fill="#FEB047" d="M79.144,272.309c0.284,0.639,0.825,0.739,1.451,0.739
		c5.557-0.008,11.113,0.001,16.669-0.021c0.388-0.001,0.775-0.207,1.163-0.318c-0.042,0.366-0.083,0.732-0.125,1.099
		c-0.63,0.441-1.35,0.283-2.035,0.285c-5.933,0.01-11.865,0.007-17.799,0.008C78.561,273.453,78.725,272.833,79.144,272.309z"/>
	<path fill-rule="evenodd" clip-rule="evenodd" fill="#FC6702" d="M45.748,288.501c2.614,0.001,5.228,0,7.843,0.008
		c0.699,0.003,1.397,0.034,2.026-0.353c-0.256,0.707-0.514,1.416-0.77,2.124c-0.347,0.648-0.959,0.825-1.62,0.847
		c-2.156,0.074-4.313,0.105-6.466-0.015c-0.914-0.051-1.848-0.244-1.351-1.577C45.405,289.153,45.408,288.771,45.748,288.501z"/>
	<path fill-rule="evenodd" clip-rule="evenodd" fill="#F85F02" d="M45.412,289.537c0.044,0.454-0.01,1.057,0.639,1.036
		c2.933-0.094,5.887,0.429,8.798-0.291c-0.243,0.814-0.486,1.627-0.729,2.441c-0.442,0.463-1.027,0.529-1.612,0.542
		c-1.981,0.042-3.964,0.064-5.945-0.011c-1.277-0.047-2.032-0.547-1.512-1.988C45.062,290.666,44.968,290.045,45.412,289.537z"/>
	<path fill-rule="evenodd" clip-rule="evenodd" fill="#DF3702" d="M137.501,301.926c-0.23,0.954-1.012,0.622-1.588,0.626
		c-3.924,0.028-7.848,0.016-11.772,0.017c-0.716-0.159-1.344-0.478-1.856-1.009c0.667-0.979,1.712-0.856,2.687-0.903
		c3.611-0.174,7.216,0.314,10.828,0.071C136.366,301.126,136.934,301.526,137.501,301.926z"/>
	<path fill-rule="evenodd" clip-rule="evenodd" fill="#F55702" d="M45.05,291.265c-0.139,1.161,0.394,1.513,1.523,1.48
		c2.514-0.068,5.031-0.022,7.546-0.023c-0.106,0.477-0.212,0.952-0.319,1.427c-0.139,0.454-0.305,0.985-0.825,1.019
		c-2.628,0.17-5.282,0.717-7.86-0.335C45.063,293.645,44.508,292.465,45.05,291.265z"/>
	<path fill-rule="evenodd" clip-rule="evenodd" fill="#FEC865" d="M81.914,267.745c0.896,0.631,2.048,0.28,2.819,0.151
		c2.259-0.38,4.46,0.155,6.707-0.004c4.11-0.293,8.272,0.134,12.413,0.262c-0.938,0.233-1.878,0.469-2.818,0.703
		c-0.593,0.257-1.221,0.528-1.852,0.463c-3.661-0.372-7.327,0.262-10.986-0.095c-1.801-0.175-3.608,0.093-5.411-0.05
		c-0.568-0.043-1.184,0.116-1.642-0.389C81.278,268.349,81.512,267.984,81.914,267.745z"/>
	<path fill-rule="evenodd" clip-rule="evenodd" fill="#FEA93E" d="M146.693,274.886c-0.646,0.375-1.331,0.626-2.086,0.645
		c-3.375,0.922-6.815,0.468-10.228,0.423c-1.315-0.019-2.665-0.076-3.963-0.429c-0.881,0.034-1.677-0.27-2.463-0.616
		c0.012-0.893,0.706-0.791,1.246-0.793c5.408-0.029,10.815-0.027,16.223,0C145.959,274.117,146.654,274,146.693,274.886z"/>
	<path fill-rule="evenodd" clip-rule="evenodd" fill="#E33B02" d="M135.799,300.728c-1.223,0.838-2.572,0.715-3.958,0.613
		c-3.188-0.234-6.386-0.508-9.556,0.219c-0.737-0.235-1.43-0.554-2.018-1.07c0.078-1.211,1.003-0.883,1.681-0.876
		c4.381,0.041,8.759-0.027,13.133-0.269C135.321,299.806,135.561,300.266,135.799,300.728z"/>
	<path fill-rule="evenodd" clip-rule="evenodd" fill="#D32703" d="M115.944,305.071c2.491-0.411,5.008-0.31,7.516-0.399
		c0.938,0.558,1.577,1.333,1.763,2.435c0.014,0.118,0.02,0.317-0.009,0.32c-2.099,0.205-4.194,0.9-6.302,0.058
		C118.25,306.278,116.883,305.937,115.944,305.071z"/>
	<path fill-rule="evenodd" clip-rule="evenodd" fill="#FDAD44" d="M146.693,274.886c-0.408-0.599-1.038-0.429-1.598-0.43
		c-5.186-0.01-10.372-0.01-15.558-0.001c-0.561,0.001-1.19-0.159-1.585,0.455c-1.057-0.322-2.151-0.544-3.095-1.165
		c8.2,0.002,16.401,0.002,24.603,0.004C148.601,274.281,147.687,274.679,146.693,274.886z"/>
	<path fill-rule="evenodd" clip-rule="evenodd" fill="#DD3403" d="M57.389,302.879c-0.241,0.553-0.707,0.874-1.256,0.716
		c-2.779-0.799-5.537,0.404-8.304,0.04c-0.613-0.43-0.829-1.097-1.06-1.755c1.141-0.985,2.527-0.511,3.8-0.577
		c1.434-0.075,2.879,0.209,4.317-0.049C55.721,301.796,56.555,302.337,57.389,302.879z"/>
	<path fill-rule="evenodd" clip-rule="evenodd" fill="#E64002" d="M135.082,299.345c-1.66,1.011-3.552,0.628-5.306,0.686
		c-2.953,0.097-5.928,0.302-8.886-0.066c-0.338-0.042-0.489,0.259-0.622,0.525c-0.926-0.33-1.827-0.706-2.556-1.397
		c5.774-0.014,11.549-0.027,17.324-0.042C135.081,299.145,135.096,299.242,135.082,299.345z"/>
	<path fill-rule="evenodd" clip-rule="evenodd" fill="#FEC460" d="M81.145,268.786c6.63,0.023,13.26,0.047,19.89,0.07
		c-0.395,0.342-0.791,0.682-1.187,1.021c-4.202-0.639-8.44,0.336-12.655-0.316c-1.643-0.253-3.337,0.233-5.013-0.026
		c-0.449-0.069-0.949,0.077-1.276-0.385C80.984,269.03,81.064,268.907,81.145,268.786z"/>
	<path fill-rule="evenodd" clip-rule="evenodd" fill="#FE790B" d="M56.31,286.728c-0.182-0.969-0.96-0.663-1.534-0.667
		c-2.61-0.027-5.22-0.011-7.831-0.008c0.331-0.582,0.66-1.166,0.989-1.749c2.667-0.814,5.397-0.503,8.109-0.431
		c0.587,0.015,1.382,0.144,0.987,1.144C56.968,285.661,56.753,286.243,56.31,286.728z"/>
	<path fill-rule="evenodd" clip-rule="evenodd" fill="#E33C03" d="M54.887,301.254c-1.265,1.343-2.833,0.287-4.247,0.506
		c-1.266,0.197-2.578,0.092-3.87,0.121c-0.409-0.65-0.585-1.37-0.631-2.126c2.576-0.96,5.154-0.417,7.733-0.025
		C54.21,300.239,54.549,300.747,54.887,301.254z"/>
	<path fill-rule="evenodd" clip-rule="evenodd" fill="#EC4902" d="M45.794,298.348c-0.38-0.652-0.417-1.371-0.405-2.1
		c2.714-0.4,5.423-0.661,8.077,0.343c0.011,0.469,0.02,0.937,0.03,1.406C50.972,299.044,48.401,299.09,45.794,298.348z"/>
	<path fill-rule="evenodd" clip-rule="evenodd" fill="#F05003" d="M53.466,296.591c-2.692-0.115-5.385-0.229-8.077-0.343
		c-0.392-0.414-0.282-0.924-0.274-1.416c2.279,0.001,4.56-0.016,6.839,0.013c0.728,0.007,1.399-0.015,1.847-0.696
		C53.689,294.964,53.577,295.777,53.466,296.591z"/>
	<path fill-rule="evenodd" clip-rule="evenodd" fill="#FEBA54" d="M79.825,270.923c6.44,0.004,12.878,0.007,19.317,0.011
		c-0.122,0.233-0.243,0.468-0.364,0.704c-6.436-0.006-12.871-0.01-19.307-0.016C79.59,271.39,79.708,271.157,79.825,270.923z"/>
	<path fill-rule="evenodd" clip-rule="evenodd" fill="#FDA73C" d="M47.142,274.474c2.141-0.015,4.281-0.032,6.423-0.047
		c1.053,0.247,1.847,0.837,2.37,1.787c-2.708,0.937-5.42,0.822-8.134,0.022C47.407,275.713,47.182,275.127,47.142,274.474z"/>
	<path fill-rule="evenodd" clip-rule="evenodd" fill="#FD8A1C" d="M48.642,281.83c0.024-0.251,0.049-0.501,0.074-0.751
		c0.051-0.512,0.286-0.973,0.806-1.007c2.538-0.17,5.096-0.635,7.588,0.32c0.334,0.442,0.225,0.948,0.206,1.441
		c-0.264,0.317-0.567,0.699-0.976,0.677C53.767,282.367,51.132,282.89,48.642,281.83z"/>
	<path fill-rule="evenodd" clip-rule="evenodd" fill="#CB1F04" d="M118.912,307.485c2.104-0.125,4.208-0.251,6.311-0.378
		c0.519,0.966,0.457,1.934,0.011,2.902c-1.376-0.256-2.766-0.249-4.157-0.259c-0.738-0.004-1.527,0.113-2.129-0.504
		C118.936,308.659,118.923,308.072,118.912,307.485z"/>
	<path fill-rule="evenodd" clip-rule="evenodd" fill="#FDA339" d="M130.416,275.525c4.73,0.002,9.46,0.004,14.191,0.006
		c-1.574,1.479-3.648,1.15-5.462,1.188C136.215,276.781,133.222,276.656,130.416,275.525z"/>
	<path fill-rule="evenodd" clip-rule="evenodd" fill="#E74202" d="M45.794,298.348c2.568-0.117,5.135-0.233,7.702-0.351
		c0.125,0.578,0.25,1.156,0.376,1.732c-0.985,0.658-2.101,0.145-3.083,0.125c-1.541-0.032-3.103,0.002-4.651-0.1
		C45.875,299.321,45.73,298.86,45.794,298.348z"/>
	<path fill-rule="evenodd" clip-rule="evenodd" fill="#FC962B" d="M137.519,279.013c-5.056-0.002-10.112-0.006-15.167-0.011
		C127.407,277.742,132.463,277.123,137.519,279.013z"/>
	<path fill-rule="evenodd" clip-rule="evenodd" fill="#FE9F32" d="M47.801,276.236c2.711-0.007,5.423-0.015,8.134-0.022
		c0.447,0.358,0.664,0.83,0.681,1.399c-0.347,0.357-0.798,0.508-1.265,0.488c-2.349-0.102-4.71,0.411-7.05-0.137
		C48.134,277.387,47.968,276.813,47.801,276.236z"/>
	<path fill-rule="evenodd" clip-rule="evenodd" fill="#FE9123" d="M57.109,280.392c-2.25,0.011-4.501,0.037-6.751,0.023
		c-0.659-0.003-1.271,0.002-1.643,0.664c-0.041-0.687-0.081-1.373-0.122-2.06c2.009-1.099,4.177-0.35,6.266-0.519
		c0.789-0.062,1.65-0.03,2.105,0.858C57.013,279.701,57.061,280.048,57.109,280.392z"/>
	<path fill-rule="evenodd" clip-rule="evenodd" fill="#C71902" d="M118.947,309.245c1.607,0,3.215-0.008,4.821,0.003
		c0.606,0.005,1.329-0.172,1.464,0.76c-0.042,0.33-0.084,0.661-0.125,0.992c-2.446,0.846-4.89,0.931-7.332-0.013
		C118.167,310.406,118.557,309.826,118.947,309.245z"/>
	<path fill-rule="evenodd" clip-rule="evenodd" fill="#C31403" d="M117.776,310.987c2.444,0.003,4.887,0.008,7.332,0.013
		c-0.199,0.595-0.131,1.277-0.585,1.788c-2.077-0.823-4.244-0.164-6.356-0.387c-0.722-0.077-1.538,0.305-2.136-0.412
		C116.611,311.655,117.194,311.322,117.776,310.987z"/>
	<path fill-rule="evenodd" clip-rule="evenodd" fill="#FD972A" d="M56.965,279.358c-2.07-0.709-4.205-0.184-6.305-0.332
		c-0.686-0.049-1.376-0.007-2.066-0.007c-0.098-0.351-0.195-0.704-0.293-1.055c2.749-0.641,5.542-0.243,8.314-0.351
		C56.777,278.185,57.062,278.733,56.965,279.358z"/>
	<path fill-rule="evenodd" clip-rule="evenodd" fill="#FE8415" d="M48.642,281.83c2.095,0.203,4.217-0.17,6.303,0.329
		c0.809,0.193,1.594-0.113,2.37-0.326c0.011,0.468,0.021,0.936,0.031,1.404c-0.406,0.39-0.913,0.504-1.452,0.511
		c-2.046,0.023-4.092,0.019-6.139,0.001c-0.534-0.006-1.053-0.085-1.443-0.512C48.422,282.767,48.532,282.3,48.642,281.83z"/>
	<path fill-rule="evenodd" clip-rule="evenodd" fill="#FE7F10" d="M48.312,283.236c3.011,0,6.022,0,9.034,0
		c0.016,0.614,0.159,1.251-0.315,1.78c-0.155-0.967-0.919-0.713-1.51-0.717c-2.529-0.016-5.058,0-7.586,0.004
		C48.06,283.949,48.187,283.593,48.312,283.236z"/>
	<path fill-rule="evenodd" clip-rule="evenodd" fill="#EC4A02" d="M135.307,297.645c-5.826,0-11.652,0.003-17.477-0.002
		c-0.762,0-1.523-0.034-2.202,0.408c-0.318-0.149-0.636-0.298-0.954-0.446c0.423-0.453,0.98-0.304,1.487-0.305
		c6.425-0.003,12.849,0.004,19.273,0.01C135.392,297.42,135.349,297.533,135.307,297.645z"/>
	<path fill-rule="evenodd" clip-rule="evenodd" fill="#E23A02" d="M63.357,298.699c-0.093,0.227-0.188,0.452-0.28,0.679
		c0.012-1.617,0.024-3.231,0.036-4.847c0.366,0.403,0.183,0.902,0.243,1.357c0,0.469,0.001,0.937,0.001,1.406
		C63.357,297.761,63.357,298.231,63.357,298.699z"/>
	<path fill-rule="evenodd" clip-rule="evenodd" fill="#F75B02" d="M142.492,291.297c-1.451,0-2.901-0.001-4.351-0.001
		C139.59,290.842,141.041,290.844,142.492,291.297z"/>
	<path fill-rule="evenodd" clip-rule="evenodd" fill="#FA6202" d="M76.351,290.616c-2.109,0.578-4.218,0.578-6.326,0
		c0.635-0.633,1.441-0.349,2.159-0.329C73.575,290.326,74.962,290.499,76.351,290.616z"/>
	<path fill-rule="evenodd" clip-rule="evenodd" fill="#FA6202" d="M67.916,290.616c-0.82,0.553-1.64,0.553-2.46,0
		C66.276,290.162,67.096,290.162,67.916,290.616z"/>
</g>
<g>
	<path d="M394.241,386.547c7.585,3.885,19.24,7.77,31.265,7.77c12.95,0,19.795-5.365,19.795-13.505
		c0-7.77-5.92-12.209-20.905-17.575c-20.72-7.215-34.225-18.685-34.225-36.814c0-21.274,17.76-37.554,47.174-37.554
		c14.06,0,24.42,2.96,31.819,6.29l-6.29,22.755c-4.995-2.405-13.875-5.92-26.085-5.92c-12.209,0-18.129,5.55-18.129,12.025
		c0,7.955,7.03,11.47,23.125,17.575c22.015,8.14,32.375,19.61,32.375,37.185c0,20.905-16.095,38.665-50.319,38.665
		c-14.245,0-28.305-3.7-35.334-7.585L394.241,386.547z"/>
	<path d="M521.52,290.903v124.689h-28.305V290.903H521.52z"/>
	<path d="M545.938,290.903h28.304v101.009h49.58v23.68h-77.884V290.903z"/>
	<path d="M670.625,383.587l-8.88,32.005h-29.23l38.11-124.689h36.999l38.664,124.689h-30.338l-9.621-32.005H670.625z
		 M702.258,362.497l-7.77-26.455c-2.219-7.4-4.439-16.65-6.289-24.05h-0.371c-1.85,7.4-3.699,16.835-5.734,24.05l-7.4,26.455
		H702.258z"/>
	<path d="M762.938,292.568c7.4-1.48,22.385-2.59,36.445-2.59c17.205,0,27.75,1.665,36.814,7.03
		c8.695,4.625,14.984,13.135,14.984,24.42c0,11.1-6.475,21.459-20.535,26.64v0.37c14.246,3.885,24.791,14.615,24.791,30.71
		c0,11.285-5.182,20.165-12.951,26.455c-9.064,7.215-24.234,11.285-49.023,11.285c-13.875,0-24.234-0.926-30.525-1.851V292.568z
		 M790.873,340.297h9.25c14.799,0,22.754-6.105,22.754-15.355c0-9.435-7.215-14.43-19.98-14.43c-6.104,0-9.619,0.37-12.023,0.74
		V340.297z M790.873,395.611c2.773,0.37,6.104,0.37,10.914,0.37c12.766,0,24.051-4.81,24.051-17.945
		c0-12.58-11.285-17.575-25.346-17.575h-9.619V395.611z"/>
	<path d="M895.396,314.583h-33.484v-23.68h95.828v23.68h-34.039v101.009h-28.305V314.583z"/>
	<path d="M1001.029,290.903v124.689h-28.305V290.903H1001.029z"/>
</g>
</svg>
